<?xml version="1.0" encoding="UTF-8"?>
<svg width="70px" height="57px" viewBox="0 0 70 57" version="1.1" xmlns="http://www.w3.org/2000/svg" xmlns:xlink="http://www.w3.org/1999/xlink">
    <!-- Generator: Sketch 47 (45396) - http://www.bohemiancoding.com/sketch -->
    <title>Shield Header</title>
    <desc>Created with Sketch.</desc>
    <defs></defs>
    <g id="Symbols" stroke="none" stroke-width="1" fill="none" fill-rule="evenodd">
        <g id="UPS-Header">
            <g id="Shield-Header">
                <polygon id="Rectangle-2" fill="#333333" points="0 2.47198095e-17 62.9960938 0 53.1317362 57 0 57"></polygon>
                <polygon id="Rectangle-2" fill="#666666" points="63 0 70 0 60 56.9944341 53 57"></polygon>
                <g id="UPS-Shield" transform="translate(16.000000, 14.200000)" fill-rule="nonzero">
                    <g id="Shield">
                        <path d="M12.985909,31.9051386 C12.1808846,31.5454713 5.61672565,28.5832091 3.49377447,26.7865204 C1.20800287,24.8529468 -3.87163531e-07,22.0754008 -3.87163531e-07,18.7554574 L-3.87163531e-07,2.97477774 C3.60849092,1.000867 7.97629812,-3.71435978e-07 12.985909,-3.71435978e-07 C17.9952775,-3.71435978e-07 22.3634376,1.000867 25.971543,2.97477774 L25.971543,18.7554574 C25.971543,22.0754008 24.7643905,24.8529468 22.4790722,26.7865204 C20.3893149,28.5540797 13.7474621,31.5626834 12.985909,31.9051386" id="Fill-2" fill="#FBB416"></path>
                        <path d="M1.19371359,18.7556228 C1.19371359,21.6958699 2.24718973,24.1509884 4.24704543,25.8338011 C6.01460592,27.3209737 11.4518971,29.8610023 12.985909,30.55998 C14.4988997,29.8706023 19.9238885,27.3631814 21.7217485,25.8338011 C23.7357561,24.1220225 24.7777403,21.7245051 24.7777403,18.7556228 L24.7777403,3.30700396 C17.2173685,2.58167421 8.27311628,3.02683291 1.19371359,9.72903992 L1.19371359,18.7556228 Z M2.34649891,17.8163119 L2.34649891,10.4861987 L4.60510566,10.4861987 L4.60510566,17.920091 C4.60510566,18.5811673 4.75933659,19.5606985 5.7952572,19.5606985 C6.2543633,19.5606985 6.61824537,19.450133 6.86382493,19.2765048 L6.86382493,10.4861987 L9.1205014,10.4861987 L9.1205014,20.6034577 C8.25677632,21.2092512 7.09756745,21.5397881 5.71574545,21.5397881 C3.47987905,21.5397881 2.34649891,20.2879807 2.34649891,17.8163119 Z M12.539555,26.2773887 L10.2787937,26.2773887 L10.2787937,11.079081 C11.0978095,10.5333875 12.0928967,10.2494263 13.3242677,10.2494263 C16.0206712,10.2494263 17.5033149,12.361178 17.5033149,15.7613166 C17.5033149,19.1679258 16.0632896,21.5003941 13.5561771,21.5003941 C13.091957,21.5003941 12.7651283,21.4368374 12.5394593,21.3673181 L12.5394593,26.2773887 L12.539555,26.2773887 Z M12.539555,12.2953193 C12.7219626,12.2017524 13.0334808,12.1270543 13.3388701,12.1270543 C14.6498656,12.1270543 15.1939032,13.207782 15.1939032,15.820952 C15.1939032,18.3702981 14.5732005,19.6017469 13.2721117,19.6017469 C12.9664168,19.6017469 12.700927,19.5239537 12.539652,19.4612229 L12.539652,12.2953193 L12.539555,12.2953193 Z M18.0152197,13.2884885 C18.0047669,11.4045541 19.5599421,10.2946294 21.046766,10.2494263 C22.2870474,10.210546 23.1281601,10.6921854 23.5253975,11.0072303 L23.5253975,13.0352966 C23.0548249,12.5363947 22.2913884,12.0842681 21.5010955,12.0769022 C20.8606922,12.0712083 20.1948779,12.361178 20.1720409,13.1907178 C20.1504901,14.0393246 20.815178,14.3758712 21.658384,14.884571 C23.545984,16.030844 23.9107329,17.0597327 23.8681145,18.4202846 C23.8251746,19.9110979 22.8287045,21.5397881 20.5958133,21.5397881 C19.7033975,21.5397881 18.8199877,21.2522848 18.1117145,20.8164775 L18.1117145,18.6683952 C18.6903617,19.1983807 19.5507751,19.6121738 20.2727172,19.6179674 C21.1009647,19.6211119 21.6468036,19.1315117 21.6270219,18.3173327 C21.610617,17.5860775 21.210003,17.1876779 20.2161071,16.5853607 C18.3529516,15.4579727 18.0192406,14.5294877 18.0152197,13.2884885 Z" id="Fill-3" fill="#351D13"></path>
                        <path d="M21.1122213,29.4890834 L21.1122213,31.315073 L21.431299,31.315073 L21.431299,30.5531938 L21.4764893,30.5531938 C21.4996499,30.5901058 21.9571966,31.315073 21.9571966,31.315073 L22.3433345,31.315073 C22.3433345,31.315073 21.8584481,30.5838178 21.8108456,30.5109886 C22.0458102,30.4535541 22.2029368,30.2787679 22.2029368,30.0258575 C22.2029368,29.7669869 22.0475796,29.4892506 21.6136747,29.4892506 L21.1122213,29.4892506 L21.1122213,29.4890834 Z M21.5770048,29.7554023 C21.848156,29.7554023 21.8836997,29.8922851 21.8836997,30.0122851 C21.8836997,30.1834299 21.8130959,30.298961 21.4705407,30.298961 L21.431299,30.298961 L21.431299,29.7554023 L21.5770048,29.7554023 Z M22.8251659,30.4065455 C22.8251659,31.0866575 22.2902646,31.6401472 21.6270219,31.6401472 C20.9671586,31.6401472 20.4304868,31.0866575 20.4304868,30.4065455 C20.4304868,29.726273 20.9671586,29.1694697 21.6270219,29.1694697 C22.2902646,29.1694697 22.8251659,29.7264368 22.8251659,30.4065455 Z M21.6258956,28.9033211 C20.8259535,28.9033211 20.1733268,29.5804506 20.1733268,30.4065455 C20.1733268,31.2334697 20.8259535,31.9049748 21.6258956,31.9049748 C22.4317887,31.9049748 23.0810386,31.2334697 23.0810386,30.4065455 C23.0808791,29.5804506 22.4317887,28.9033211 21.6258956,28.9033211 Z" id="Fill-4" fill="#FBB416"></path>
                    </g>
                </g>
            </g>
        </g>
    </g>
</svg>