<?xml version="1.0" encoding="UTF-8"?>
<svg width="24px" height="24px" viewBox="0 0 40 40" version="1.1" xmlns="http://www.w3.org/2000/svg" xmlns:xlink="http://www.w3.org/1999/xlink">
    <!-- Generator: Sketch 49.3 (51167) - http://www.bohemiancoding.com/sketch -->
    <title>airport</title>
    <desc>Created with Sketch.</desc>
    <defs></defs>
    <g id="Icons" stroke="none" stroke-width="1" fill="none" fill-rule="evenodd">
        <g transform="translate(-1020.000000, -360.000000)" id="Locations/CPX">
            <g transform="translate(1020.000000, 360.000000)">
                <g id="airport">
                    <circle id="Oval-Copy" fill="#351D13" cx="20" cy="20" r="20"></circle>
                    <path d="M29.4285714,11.5714286 C29.8214305,12.0357166 29.8750014,12.6964243 29.5892857,13.5535714 C29.30357,14.4107186 28.821432,15.178568 28.1428571,15.8571429 L25.9866071,18.0133929 L28.1294643,27.3348214 C28.1741074,27.5044651 28.1205365,27.6517851 27.96875,27.7767857 L26.2544643,29.0625 C26.191964,29.1160717 26.1071434,29.1428571 26,29.1428571 C25.9642855,29.1428571 25.9330358,29.1383929 25.90625,29.1294643 C25.7723208,29.1026784 25.6785717,29.0312506 25.625,28.9151786 L21.8883929,22.1116071 L18.4196429,25.5803571 L19.1294643,28.1785714 C19.1741074,28.3303579 19.1383934,28.4687494 19.0223214,28.59375 L17.7366071,29.8794643 C17.6562496,29.9598218 17.5535721,30 17.4285714,30 L17.4017857,30 C17.2678565,29.9821428 17.1607147,29.9241076 17.0803571,29.8258929 L14.5491071,26.4508929 L11.1741071,23.9196429 C11.0758924,23.8571425 11.0178572,23.754465 11,23.6116071 C10.9910714,23.4955351 11.0312496,23.3839291 11.1205357,23.2767857 L12.40625,21.9776786 C12.4866075,21.897321 12.5892851,21.8571429 12.7142857,21.8571429 C12.7678574,21.8571429 12.8035713,21.8616071 12.8214286,21.8705357 L15.4196429,22.5803571 L18.8883929,19.1116071 L12.0848214,15.375 C11.9598208,15.3035711 11.8839287,15.1964293 11.8571429,15.0535714 C11.8392856,14.9107136 11.8794638,14.7901791 11.9776786,14.6919643 L13.6919643,12.9776786 C13.8169649,12.8616066 13.9508921,12.8258926 14.09375,12.8705357 L23,15 L25.1428571,12.8571429 C25.821432,12.178568 26.5892814,11.69643 27.4464286,11.4107143 C28.3035757,11.1249986 28.9642834,11.1785695 29.4285714,11.5714286 Z" id="plane---FontAwesome" fill="#FFFFFF"></path>
                </g>
            </g>
        </g>
    </g>
</svg>