<?xml version="1.0" encoding="UTF-8"?>
<svg width="24px" height="24px" viewBox="0 0 40 40" version="1.1" xmlns="http://www.w3.org/2000/svg" xmlns:xlink="http://www.w3.org/1999/xlink">
    <!-- Generator: Sketch 49.3 (51167) - http://www.bohemiancoding.com/sketch -->
    <title>CPU</title>
    <desc>Created with Sketch.</desc>
    <defs></defs>
    <g id="Icons" stroke="none" stroke-width="1" fill="none" fill-rule="evenodd">
        <g transform="translate(-220.000000, -360.000000)" id="Locations/CPU">
            <g transform="translate(220.000000, 360.000000)">
                <g id="CPU">
                    <circle id="Oval" fill="#351D13" cx="20" cy="20" r="20"></circle>
                    <path d="M15.8366781,18.9798218 L24.2031894,18.9798218 C24.6432557,18.9798218 25,19.3354606 25,19.7741633 L25,28.1147494 C25,28.5534521 24.6432557,28.9090909 24.2031894,28.9090909 L15.8366781,28.9090909 C15.3966117,28.9090909 15.0398675,28.5534521 15.0398675,28.1147494 L15.0398675,19.7741633 C15.0398675,19.3354606 15.3966117,18.9798218 15.8366781,18.9798218 Z M21.1490081,20.1713341 C21.0389916,20.1713341 20.9498055,20.2602438 20.9498055,20.3699195 L20.9498055,22.9493962 C20.9498055,23.0590719 21.0389916,23.1479816 21.1490081,23.1479816 L23.7386426,23.1479816 C23.8486592,23.1479816 23.9378452,23.0590719 23.9378452,22.9493962 L23.9378452,20.3699195 C23.9378452,20.2602438 23.8486592,20.1713341 23.7386426,20.1713341 L21.1490081,20.1713341 Z M21.4475527,20.9656756 C21.3742083,20.9656756 21.314751,20.9064025 21.314751,20.8332854 C21.314751,20.7601683 21.3742083,20.7008951 21.4475527,20.7008951 L22.5763678,20.7008951 C22.6497121,20.7008951 22.7091695,20.7601683 22.7091695,20.8332854 C22.7091695,20.9064025 22.6497121,20.9656756 22.5763678,20.9656756 L21.4475527,20.9656756 Z M21.4475527,21.4952367 C21.3742083,21.4952367 21.314751,21.4359635 21.314751,21.3628464 C21.314751,21.2897293 21.3742083,21.2304561 21.4475527,21.2304561 L22.5763678,21.2304561 C22.6497121,21.2304561 22.7091695,21.2897293 22.7091695,21.3628464 C22.7091695,21.4359635 22.6497121,21.4952367 22.5763678,21.4952367 L21.4475527,21.4952367 Z M21.4475527,22.0247977 C21.3742083,22.0247977 21.314751,21.9655245 21.314751,21.8924074 C21.314751,21.8192903 21.3742083,21.7600172 21.4475527,21.7600172 L22.5763678,21.7600172 C22.6497121,21.7600172 22.7091695,21.8192903 22.7091695,21.8924074 C22.7091695,21.9655245 22.6497121,22.0247977 22.5763678,22.0247977 L21.4475527,22.0247977 Z M21.4475527,22.5543587 C21.3742083,22.5543587 21.314751,22.4950856 21.314751,22.4219684 C21.314751,22.3488513 21.3742083,22.2895782 21.4475527,22.2895782 L23.4727797,22.2895782 C23.5461241,22.2895782 23.6055814,22.3488513 23.6055814,22.4219684 C23.6055814,22.4950856 23.5461241,22.5543587 23.4727797,22.5543587 L21.4475527,22.5543587 Z M24.9601325,12.9646345 C24.9601325,13.1813206 24.8812876,13.3725113 24.7235953,13.5382123 L24.2441281,14.0161939 C24.0821739,14.1776462 23.888258,14.2583711 23.6623746,14.2583711 C23.4322291,14.2583711 23.2404442,14.1776462 23.0870139,14.0161939 L21.2075024,12.1488794 L21.2075024,16.6355325 C21.2075024,16.8564673 21.127592,17.0359741 20.9677687,17.1740583 C20.8079455,17.3121426 20.6150951,17.3811836 20.3892116,17.3811836 L19.5709209,17.3811836 C19.3450374,17.3811836 19.152187,17.3121426 18.9923638,17.1740583 C18.8325406,17.0359741 18.7526302,16.8564673 18.7526302,16.6355325 L18.7526302,12.1488794 L16.8731186,14.0161939 C16.7196884,14.1776462 16.5279034,14.2583711 16.297758,14.2583711 C16.0676125,14.2583711 15.8758276,14.1776462 15.7223973,14.0161939 L15.2429301,13.5382123 C15.0809759,13.37676 15,13.1855693 15,12.9646345 C15,12.739451 15.0809759,12.546136 15.2429301,12.3846837 L19.4047056,8.23580421 C19.5538739,8.07860062 19.7456589,8 19.9800663,8 C20.2102117,8 20.4041276,8.07860062 20.5618198,8.23580421 L24.7235953,12.3846837 C24.8812876,12.5503847 24.9601325,12.7436998 24.9601325,12.9646345 Z" id="Combined-Shape" fill="#FFFFFF"></path>
                </g>
            </g>
        </g>
    </g>
</svg>