<?xml version="1.0" encoding="UTF-8"?>
<svg width="24px" height="24px" viewBox="0 0 40 40" version="1.1" xmlns="http://www.w3.org/2000/svg" xmlns:xlink="http://www.w3.org/1999/xlink">
    <!-- Generator: Sketch 49.3 (51167) - http://www.bohemiancoding.com/sketch -->
    <title>CPX</title>
    <desc>Created with Sketch.</desc>
    <defs></defs>
    <g id="Icons" stroke="none" stroke-width="1" fill="none" fill-rule="evenodd">
        <g transform="translate(-300.000000, -360.000000)" id="Locations/CPX">
            <g transform="translate(300.000000, 360.000000)">
                <g id="CPX">
                    <ellipse id="Oval-Copy-2" fill="#351D13" cx="19.7782705" cy="20" rx="19.5121951" ry="20"></ellipse>
                    <path d="M15.4146341,20 L23.6097561,20 C24.0408076,20 24.3902439,20.3581722 24.3902439,20.8 L24.3902439,29.2 C24.3902439,29.6418278 24.0408076,30 23.6097561,30 L15.4146341,30 C14.9835826,30 14.6341463,29.6418278 14.6341463,29.2 L14.6341463,20.8 C14.6341463,20.3581722 14.9835826,20 15.4146341,20 Z M20.6829268,21 C20.575164,21 20.4878049,21.0896072 20.4878049,21.2001433 L20.4878049,23.7998567 C20.4878049,23.9103928 20.575164,24 20.6829268,24 L23.2195122,24 C23.3272751,24 23.4146341,23.9103928 23.4146341,23.7998567 L23.4146341,21.2001433 C23.4146341,21.0896072 23.3272751,21 23.2195122,21 L20.6829268,21 Z M20.5807201,21.4 C20.5294044,21.4 20.4878049,21.3104569 20.4878049,21.2 C20.4878049,21.0895431 20.5294044,21 20.5807201,21 L21.3704994,21 C21.4218151,21 21.4634146,21.0895431 21.4634146,21.2 C21.4634146,21.3104569 21.4218151,21.4 21.3704994,21.4 L20.5807201,21.4 Z M20.5807201,22.4 C20.5294044,22.4 20.4878049,22.3104569 20.4878049,22.2 C20.4878049,22.0895431 20.5294044,22 20.5807201,22 L21.3704994,22 C21.4218151,22 21.4634146,22.0895431 21.4634146,22.2 C21.4634146,22.3104569 21.4218151,22.4 21.3704994,22.4 L20.5807201,22.4 Z M20.5807201,23.4 C20.5294044,23.4 20.4878049,23.3104569 20.4878049,23.2 C20.4878049,23.0895431 20.5294044,23 20.5807201,23 L21.3704994,23 C21.4218151,23 21.4634146,23.0895431 21.4634146,23.2 C21.4634146,23.3104569 21.4218151,23.4 21.3704994,23.4 L20.5807201,23.4 Z M20.6009191,23.4 C20.5384478,23.4 20.4878049,23.3104569 20.4878049,23.2 C20.4878049,23.0895431 20.5384478,23 20.6009191,23 L22.3259102,23 C22.3883814,23 22.4390244,23.0895431 22.4390244,23.2 C22.4390244,23.3104569 22.3883814,23.4 22.3259102,23.4 L20.6009191,23.4 Z M14.6341463,15.1752717 C14.6341463,15.0339667 14.6804842,14.9103266 14.7731613,14.8043478 L17.2190739,12.1508152 C17.311751,12.0502712 17.4257171,12 17.5609756,12 C17.6987389,12 17.8114526,12.0502712 17.8991202,12.1508152 L20.3450327,14.8043478 C20.4402146,14.9076092 20.4878049,15.0312493 20.4878049,15.1752717 C20.4878049,15.3165768 20.4402146,15.4388582 20.3450327,15.5421196 L20.0632456,15.8478261 C19.9730732,15.9510875 19.8603595,16.0027174 19.725101,16.0027174 C19.5898425,16.0027174 19.4771287,15.9510875 19.3869564,15.8478261 L18.2823507,14.6535326 L18.2823507,17.5230978 C18.2823507,17.6644029 18.2353867,17.7792115 18.1414572,17.8675272 C18.0475276,17.9558428 17.9341877,18 17.801434,18 L17.3205172,18 C17.1877635,18 17.0744236,17.9558428 16.9804941,17.8675272 C16.8865645,17.7792115 16.8396005,17.6644029 16.8396005,17.5230978 L16.8396005,14.6535326 L15.7349948,15.8478261 C15.6448225,15.9510875 15.5321088,16.0027174 15.3968502,16.0027174 C15.2640965,16.0027174 15.1501304,15.9510875 15.0549485,15.8478261 L14.7731613,15.5421196 C14.6804842,15.4361408 14.6341463,15.3138594 14.6341463,15.1752717 Z M18.5365854,10.8247283 C18.5365854,10.6861406 18.5829232,10.5638592 18.6756004,10.4578804 L18.9573875,10.1521739 C19.0525694,10.0489125 19.1665355,9.99728261 19.2992893,9.99728261 C19.4345478,9.99728261 19.5472615,10.0489125 19.6374339,10.1521739 L20.7420395,11.3464674 L20.7420395,8.47690217 C20.7420395,8.33559712 20.7890036,8.22078849 20.8829331,8.13247283 C20.9768626,8.04415717 21.0902025,8 21.2229563,8 L21.703873,8 C21.8366267,8 21.9499667,8.04415717 22.0438962,8.13247283 C22.1378257,8.22078849 22.1847898,8.33559712 22.1847898,8.47690217 L22.1847898,11.3464674 L23.2893954,10.1521739 C23.3795678,10.0489125 23.4922815,9.99728261 23.62754,9.99728261 C23.7627985,9.99728261 23.8755122,10.0489125 23.9656846,10.1521739 L24.2474717,10.4578804 C24.3426537,10.5611418 24.3902439,10.6834232 24.3902439,10.8247283 C24.3902439,10.9687507 24.3426537,11.0923908 24.2474717,11.1956522 L21.8015592,13.8491848 C21.7138917,13.9497288 21.6011779,14 21.4634146,14 C21.3281561,14 21.21419,13.9497288 21.1215129,13.8491848 L18.6756004,11.1956522 C18.5829232,11.0896734 18.5365854,10.9660333 18.5365854,10.8247283 Z" id="Combined-Shape" fill="#FFFFFF"></path>
                </g>
            </g>
        </g>
    </g>
</svg>