<?xml version="1.0" encoding="UTF-8"?>
<svg width="24px" height="24px" viewBox="0 0 40 40" version="1.1" xmlns="http://www.w3.org/2000/svg" xmlns:xlink="http://www.w3.org/1999/xlink">
    <!-- Generator: Sketch 49.3 (51167) - http://www.bohemiancoding.com/sketch -->
    <title>CSL</title>
    <desc>Created with Sketch.</desc>
    <defs>
        <path d="M12.5714286,15.9419643 C12.5119045,15.9419643 12.373513,15.8325904 12.15625,15.6138393 C11.938987,15.3950882 11.8303571,15.2559527 11.8303571,15.1964286 C11.8303571,15.10119 11.9233622,15.0208337 12.109375,14.9553571 C12.2953878,14.8898806 12.4494042,14.8571429 12.5714286,14.8571429 C12.693453,14.8571429 12.8474693,14.8898806 13.0334821,14.9553571 C13.219495,15.0208337 13.3125,15.10119 13.3125,15.1964286 C13.3125,15.2559527 13.2038701,15.3950882 12.9866071,15.6138393 C12.7693442,15.8325904 12.6309527,15.9419643 12.5714286,15.9419643 Z M13.7767857,14.7321429 C13.7708333,14.7321429 13.7113101,14.6949408 13.5982143,14.6205357 C13.4851185,14.5461306 13.3340783,14.4717266 13.1450893,14.3973214 C12.9561002,14.3229163 12.7648819,14.2857143 12.5714286,14.2857143 C12.3779752,14.2857143 12.1867569,14.3229163 11.9977679,14.3973214 C11.8087788,14.4717266 11.6584827,14.5461306 11.546875,14.6205357 C11.4352673,14.6949408 11.375,14.7321429 11.3660714,14.7321429 C11.3124997,14.7321429 11.1733642,14.6205368 10.9486607,14.3973214 C10.7239572,14.174106 10.6116071,14.0357146 10.6116071,13.9821429 C10.6116071,13.9434522 10.6264879,13.9092263 10.65625,13.8794643 C10.888394,13.6502965 11.1800578,13.4702388 11.53125,13.3392857 C11.8824422,13.2083327 12.229165,13.1428571 12.5714286,13.1428571 C12.9136922,13.1428571 13.2604149,13.2083327 13.6116071,13.3392857 C13.9627994,13.4702388 14.2544631,13.6502965 14.4866071,13.8794643 C14.5163692,13.9092263 14.53125,13.9434522 14.53125,13.9821429 C14.53125,14.0357146 14.4188999,14.174106 14.1941964,14.3973214 C13.9694929,14.6205368 13.8303574,14.7321429 13.7767857,14.7321429 Z M14.9955357,13.5178571 C14.9627975,13.5178571 14.9285716,13.5059525 14.8928571,13.4821429 C14.4880932,13.1696413 14.113097,12.9397329 13.7678571,12.7924107 C13.4226173,12.6450885 13.0238118,12.5714286 12.5714286,12.5714286 C12.3184511,12.5714286 12.0647334,12.6041663 11.8102679,12.6696429 C11.5558023,12.7351194 11.3340783,12.8139876 11.1450893,12.90625 C10.9561002,12.9985124 10.7872031,13.0907733 10.6383929,13.1830357 C10.4895826,13.2752981 10.3720242,13.3541663 10.2857143,13.4196429 C10.1994043,13.4851194 10.1532738,13.5178571 10.1473214,13.5178571 C10.0967259,13.5178571 9.95982254,13.4062511 9.73660714,13.1830357 C9.51339174,12.9598203 9.40178571,12.8214288 9.40178571,12.7678571 C9.40178571,12.7321427 9.41666652,12.6994049 9.44642857,12.6696429 C9.83928768,12.2767837 10.3154734,11.9717273 10.875,11.7544643 C11.4345266,11.5372013 11.9999971,11.4285714 12.5714286,11.4285714 C13.14286,11.4285714 13.7083305,11.5372013 14.2678571,11.7544643 C14.8273838,11.9717273 15.3035695,12.2767837 15.6964286,12.6696429 C15.7261906,12.6994049 15.7410714,12.7321427 15.7410714,12.7678571 C15.7410714,12.8214288 15.6294654,12.9598203 15.40625,13.1830357 C15.1830346,13.4062511 15.0461312,13.5178571 14.9955357,13.5178571 Z M16.2053571,12.3080357 C16.1726189,12.3080357 16.1398811,12.294643 16.1071429,12.2678571 C15.5744021,11.8005929 15.0215802,11.4486619 14.4486607,11.2120536 C13.8757412,10.9754452 13.2500034,10.8571429 12.5714286,10.8571429 C11.8928538,10.8571429 11.267116,10.9754452 10.6941964,11.2120536 C10.1212769,11.4486619 9.56845504,11.8005929 9.03571429,12.2678571 C9.00297603,12.294643 8.97023826,12.3080357 8.9375,12.3080357 C8.88690451,12.3080357 8.74925708,12.1964297 8.52455357,11.9732143 C8.29985007,11.7499989 8.1875,11.6116074 8.1875,11.5580357 C8.1875,11.519345 8.2023808,11.4851192 8.23214286,11.4553571 C8.78869326,10.9017829 9.45088902,10.4732158 10.21875,10.1696429 C10.986611,9.86606991 11.7708293,9.71428571 12.5714286,9.71428571 C13.3720278,9.71428571 14.1562462,9.86606991 14.9241071,10.1696429 C15.6919681,10.4732158 16.3541639,10.9017829 16.9107143,11.4553571 C16.9404763,11.4851192 16.9553571,11.519345 16.9553571,11.5580357 C16.9553571,11.6116074 16.8430071,11.7499989 16.6183036,11.9732143 C16.3936001,12.1964297 16.2559526,12.3080357 16.2053571,12.3080357 Z" id="path-1"></path>
    </defs>
    <g id="Icons" stroke="none" stroke-width="1" fill="none" fill-rule="evenodd">
        <g transform="translate(-380.000000, -360.000000)" id="Locations/CPU">
            <g transform="translate(380.000000, 360.000000)">
                <g id="CSL">
                    <circle id="Oval" fill="#351D13" cx="20" cy="20" r="20"></circle>
                    <path d="M21.8366781,20.9798218 L30.2031894,20.9798218 C30.6432557,20.9798218 31,21.3354606 31,21.7741633 L31,30.1147494 C31,30.5534521 30.6432557,30.9090909 30.2031894,30.9090909 L21.8366781,30.9090909 C21.3966117,30.9090909 21.0398675,30.5534521 21.0398675,30.1147494 L21.0398675,21.7741633 C21.0398675,21.3354606 21.3966117,20.9798218 21.8366781,20.9798218 Z M27.1490081,22.1713341 C27.0389916,22.1713341 26.9498055,22.2602438 26.9498055,22.3699195 L26.9498055,24.9493962 C26.9498055,25.0590719 27.0389916,25.1479816 27.1490081,25.1479816 L29.7386426,25.1479816 C29.8486592,25.1479816 29.9378452,25.0590719 29.9378452,24.9493962 L29.9378452,22.3699195 C29.9378452,22.2602438 29.8486592,22.1713341 29.7386426,22.1713341 L27.1490081,22.1713341 Z M27.4475527,22.9656756 C27.3742083,22.9656756 27.314751,22.9064025 27.314751,22.8332854 C27.314751,22.7601683 27.3742083,22.7008951 27.4475527,22.7008951 L28.5763678,22.7008951 C28.6497121,22.7008951 28.7091695,22.7601683 28.7091695,22.8332854 C28.7091695,22.9064025 28.6497121,22.9656756 28.5763678,22.9656756 L27.4475527,22.9656756 Z M27.4475527,23.4952367 C27.3742083,23.4952367 27.314751,23.4359635 27.314751,23.3628464 C27.314751,23.2897293 27.3742083,23.2304561 27.4475527,23.2304561 L28.5763678,23.2304561 C28.6497121,23.2304561 28.7091695,23.2897293 28.7091695,23.3628464 C28.7091695,23.4359635 28.6497121,23.4952367 28.5763678,23.4952367 L27.4475527,23.4952367 Z M27.4475527,24.0247977 C27.3742083,24.0247977 27.314751,23.9655245 27.314751,23.8924074 C27.314751,23.8192903 27.3742083,23.7600172 27.4475527,23.7600172 L28.5763678,23.7600172 C28.6497121,23.7600172 28.7091695,23.8192903 28.7091695,23.8924074 C28.7091695,23.9655245 28.6497121,24.0247977 28.5763678,24.0247977 L27.4475527,24.0247977 Z M27.4475527,24.5543587 C27.3742083,24.5543587 27.314751,24.4950856 27.314751,24.4219684 C27.314751,24.3488513 27.3742083,24.2895782 27.4475527,24.2895782 L29.4727797,24.2895782 C29.5461241,24.2895782 29.6055814,24.3488513 29.6055814,24.4219684 C29.6055814,24.4950856 29.5461241,24.5543587 29.4727797,24.5543587 L27.4475527,24.5543587 Z" id="Combined-Shape" fill="#FFFFFF"></path>
                    <g id="Group-2" transform="translate(8.000000, 8.000000)">
                        <g id="" transform="translate(12.571429, 12.828125) scale(1, -1) rotate(47.000000) translate(-12.571429, -12.828125) ">
                            <use fill="#FFFFFF" fill-rule="evenodd" xlink:href="#path-1"></use>
                            <use fill="black" fill-opacity="1" xlink:href="#path-1"></use>
                        </g>
                        <path d="M0,8.24485504 L4.75514496,13 L13,4.75514496 L8.24485504,0 L0,8.24485504 Z M6.9569626,9.69483251 L5.60902058,11.0427745 L1.99872315,7.43247709 L3.34666516,6.08453508 L6.9569626,9.69483251 Z M8.35616644,8.11206249 L7.48910921,8.97911972 L6.67331381,8.16332432 L7.54037104,7.29626709 L8.35616644,8.11206249 Z M7.00480697,6.76070302 L6.13774974,7.62776025 L5.32195433,6.81196485 L6.18901157,5.94490762 L7.00480697,6.76070302 Z M5.6534475,5.40934355 L4.78639027,6.27640078 L3.97059486,5.46060538 L4.8376521,4.59354814 L5.6534475,5.40934355 Z" id="Shape" fill="#FFFFFF" fill-rule="nonzero" transform="translate(6.500000, 6.500000) scale(-1, 1) translate(-6.500000, -6.500000) "></path>
                    </g>
                </g>
            </g>
        </g>
    </g>
</svg>