<?xml version="1.0" encoding="UTF-8"?>
<svg width="24px" height="24px" viewBox="0 0 40 40" version="1.1" xmlns="http://www.w3.org/2000/svg" xmlns:xlink="http://www.w3.org/1999/xlink">
    <!-- Generator: Sketch 49.3 (51167) - http://www.bohemiancoding.com/sketch -->
    <title>Center</title>
    <desc>Created with Sketch.</desc>
    <defs></defs>
    <g id="Icons" stroke="none" stroke-width="1" fill="none" fill-rule="evenodd">
        <g transform="translate(-460.000000, -360.000000)" id="Locations/CPX">
            <g transform="translate(460.000000, 360.000000)">
                <g id="Center">
                    <circle id="Oval-Copy" fill="#351D13" cx="20" cy="20" r="20"></circle>
                    <path d="M28,17.791548 L28,20.8848305 L28,26.7696611 L25.8303274,26.7696611 L25.8303274,20.5763759 L21.0036496,20.5763759 L21.0036496,26.7374044 L18.9392212,26.7374044 L18.9392212,20.5763759 L14.0644284,20.5763759 L14.0644284,20.8848305 L14.0331492,20.8848305 L14.0331492,26.7696611 L12,26.7696611 L12,17.791548 L28,17.791548 Z M28,16.4152624 L12,16.4152624 L12,15 L28,15 L28,16.4152624 Z M23.5707725,24.9975041 L25.2911295,24.9975041 L25.2911295,26.8469901 L23.5707725,26.8469901 L23.5707725,24.9975041 Z M22.5385583,22.8729664 L24.2589153,22.8729664 L24.2589153,24.7224523 L22.5385583,24.7224523 L22.5385583,22.8729664 Z M21.5063441,24.9975041 L23.2267011,24.9975041 L23.2267011,26.8469901 L21.5063441,26.8469901 L21.5063441,24.9975041 Z" id="Combined-Shape" fill="#FFFFFF" fill-rule="nonzero"></path>
                </g>
            </g>
        </g>
    </g>
</svg>