<?xml version="1.0" encoding="UTF-8"?>
<svg width="24px" height="24px" viewBox="0 0 40 40" version="1.1" xmlns="http://www.w3.org/2000/svg" xmlns:xlink="http://www.w3.org/1999/xlink">
    <!-- Generator: Sketch 49.3 (51167) - http://www.bohemiancoding.com/sketch -->
    <title>Railhead</title>
    <desc>Created with Sketch.</desc>
    <defs></defs>
    <g id="Icons" stroke="none" stroke-width="1" fill="none" fill-rule="evenodd">
        <g transform="translate(-860.000000, -360.000000)" id="Locations/CPX">
            <g transform="translate(860.000000, 360.000000)">
                <g id="Railhead">
                    <circle id="Oval-Copy-2" fill="#351D13" cx="20" cy="20" r="20"></circle>
                    <path d="M23.625,12 C24.8294331,12 25.8596962,12.3130549 26.7158203,12.9391741 C27.5719444,13.5652933 28,14.3236563 28,15.2142857 L28,24.2142857 C28,25.0848258 27.5914754,25.8281219 26.7744141,26.4441964 C25.9573527,27.0602709 24.9628965,27.3850445 23.7910156,27.4185268 L25.8710938,29.4475446 C25.9752609,29.5479916 26.0013023,29.6651779 25.9492188,29.7991071 C25.8971352,29.9330364 25.7994799,30 25.65625,30 L15.34375,30 C15.2005201,30 15.1028648,29.9330364 15.0507812,29.7991071 C14.9986977,29.6651779 15.0247391,29.5479916 15.1289062,29.4475446 L17.2089844,27.4185268 C16.0371035,27.3850445 15.0426473,27.0602709 14.2255859,26.4441964 C13.4085246,25.8281219 13,25.0848258 13,24.2142857 L13,15.2142857 C13,14.3236563 13.4280556,13.5652933 14.2841797,12.9391741 C15.1403038,12.3130549 16.1705669,12 17.375,12 L23.625,12 Z M20.5,25.5 C21.0208359,25.5 21.4635398,25.3125019 21.828125,24.9375 C22.1927102,24.5624981 22.375,24.1071455 22.375,23.5714286 C22.375,23.0357116 22.1927102,22.580359 21.828125,22.2053571 C21.4635398,21.8303553 21.0208359,21.6428571 20.5,21.6428571 C19.9791641,21.6428571 19.5364602,21.8303553 19.171875,22.2053571 C18.8072898,22.580359 18.625,23.0357116 18.625,23.5714286 C18.625,24.1071455 18.8072898,24.5624981 19.171875,24.9375 C19.5364602,25.3125019 19.9791641,25.5 20.5,25.5 Z M26.125,19.7142857 L26.125,14.5714286 L14.875,14.5714286 L14.875,19.7142857 L26.125,19.7142857 Z" id="train---FontAwesome" fill="#FFFFFF"></path>
                </g>
            </g>
        </g>
    </g>
</svg>