<?xml version="1.0" encoding="UTF-8"?>
<svg width="24px" height="24px" viewBox="0 0 40 40" version="1.1" xmlns="http://www.w3.org/2000/svg" xmlns:xlink="http://www.w3.org/1999/xlink">
    <!-- Generator: Sketch 49.3 (51167) - http://www.bohemiancoding.com/sketch -->
    <title>Meet-Point</title>
    <desc>Created with Sketch.</desc>
    <defs></defs>
    <g id="Icons" stroke="none" stroke-width="1" fill="none" fill-rule="evenodd">
        <g transform="translate(-780.000000, -360.000000)" id="Locations/CPU">
            <g transform="translate(780.000000, 360.000000)">
                <g id="Meet-Point">
                    <circle id="Oval-Copy" fill="#351D13" cx="20" cy="20" r="20"></circle>
                    <path d="M10.0833333,22.6173001 C10.3726866,22.6173001 10.5752309,22.5028095 10.6909722,22.273825 C10.8067135,22.0448406 10.8067135,21.8158595 10.6909722,21.586875 C10.5752309,21.3578906 10.3726866,21.2434 10.0833333,21.2434 C9.79398003,21.2434 9.59143576,21.3578906 9.47569444,21.586875 C9.35995313,21.8158595 9.35995313,22.0448406 9.47569444,22.273825 C9.59143576,22.5028095 9.79398003,22.6173001 10.0833333,22.6173001 Z M26.0664062,21.9947516 C25.9940679,21.9017267 25.8548187,21.7228352 25.6486545,21.4580719 C25.4424903,21.1933086 25.2923905,21.0001059 25.1983507,20.8784579 C25.1043109,20.7568099 24.9668701,20.5814962 24.7860243,20.3525118 C24.6051785,20.1235273 24.4514619,19.9339024 24.3248698,19.7836313 C24.1982777,19.6333602 24.0517948,19.4652023 23.8854167,19.2791524 C23.7190385,19.0931025 23.5562797,18.9177889 23.3971354,18.7532063 L22.0407986,20.2559094 C21.4403905,20.9285513 20.6862748,21.2577116 19.7784288,21.2434 C18.8705828,21.2290885 18.1273177,20.8784613 17.5486111,20.1915079 C17.1362827,19.6977601 16.93193,19.1324631 16.9355469,18.4956 C16.9391638,17.8587369 17.1507502,17.2970178 17.5703125,16.8104258 L19.4908854,14.5993055 C19.3317411,14.5205921 19.1472811,14.4615579 18.9375,14.4222012 C18.7277189,14.3828445 18.5559179,14.3613775 18.422092,14.3577996 C18.2882661,14.3542217 18.0839134,14.3560106 17.8090278,14.3631664 C17.5341421,14.3703222 17.3569159,14.3739 17.2773438,14.3739 C16.6118312,14.3739 16.040367,14.6100367 15.562934,15.0823172 L13.8485243,16.778225 L12.1666667,16.778225 L12.1666667,22.6173001 C12.2028358,22.6173001 12.2787899,22.6155111 12.3945312,22.6119333 C12.5102726,22.6083554 12.5898435,22.6083554 12.6332465,22.6119333 C12.6766495,22.6155111 12.7471783,22.6226668 12.8448351,22.6334004 C12.9424918,22.6441341 13.0166375,22.6602343 13.0672743,22.6817016 C13.1179111,22.7031689 13.1812062,22.7335805 13.2571615,22.7729372 C13.3331167,22.8122939 13.4000286,22.8605946 13.4578993,22.9178407 L16.6805556,26.0520501 C17.5124463,26.84634 18.333474,27.243479 19.1436632,27.243479 C19.7079021,27.243479 20.1600099,27.075321 20.5,26.7390001 C20.9123285,26.8821154 21.3192254,26.8534927 21.7207031,26.6531313 C22.1221808,26.4527699 22.3844033,26.1486545 22.5073785,25.7407758 C23.0426821,25.7837104 23.5020235,25.626286 23.8854167,25.2684977 C24.0300933,25.139694 24.1603003,24.9769027 24.2760417,24.7801192 C24.391783,24.5833357 24.4424191,24.4026553 24.4279514,24.2380727 C24.5002897,24.3096304 24.6558148,24.3454087 24.8945312,24.3454087 C25.205586,24.3454087 25.4840844,24.2702742 25.7300347,24.1200032 C25.975985,23.9697321 26.1550197,23.7801072 26.2671441,23.5511227 C26.3792685,23.3221382 26.4226708,23.0663235 26.3973524,22.7836708 C26.372034,22.501018 26.2617197,22.2380476 26.0664062,21.9947516 Z M27.7916667,22.6173001 L28.8333333,22.6173001 L28.8333333,17.1217 L27.8242188,17.1217 L26.1206597,15.1896531 C25.6432268,14.645815 25.0319771,14.3739 24.2868924,14.3739 L22.4748264,14.3739 C21.8310153,14.3739 21.3029535,14.6136145 20.890625,15.0930508 L18.6228299,17.7013141 C18.4202826,17.9374543 18.3190104,18.2057915 18.3190104,18.5063336 C18.3190104,18.8068758 18.4166657,19.0752129 18.6119792,19.3113532 C18.923034,19.6762972 19.3208888,19.8623443 19.8055556,19.8695 C20.2902223,19.8766558 20.691694,19.7013422 21.0099826,19.3435539 L23.1041667,17.0036305 C23.2850125,16.8390479 23.4785146,16.7621246 23.6846788,16.7728582 C23.890843,16.7835919 24.0608356,16.8801932 24.1946615,17.0626653 C24.3284874,17.2451373 24.3592307,17.4472846 24.2868924,17.6691133 C24.4026337,17.8050728 24.605178,18.0304761 24.8945312,18.3453297 C25.1838845,18.6601834 25.4008963,18.9034757 25.5455729,19.0752141 C25.7553541,19.3328216 26.0537452,19.7102826 26.4407552,20.2076082 C26.8277652,20.7049339 27.0610528,21.0072604 27.140625,21.1145969 C27.5167843,21.5868774 27.733796,22.0877734 27.7916667,22.6173001 Z M30.9166667,22.6173001 C31.20602,22.6173001 31.4085642,22.5028095 31.5243056,22.273825 C31.6400469,22.0448406 31.6400469,21.8158595 31.5243056,21.586875 C31.4085642,21.3578906 31.20602,21.2434 30.9166667,21.2434 C30.6273134,21.2434 30.4247691,21.3578906 30.3090278,21.586875 C30.1932865,21.8158595 30.1932865,22.0448406 30.3090278,22.273825 C30.4247691,22.5028095 30.6273134,22.6173001 30.9166667,22.6173001 Z M33,16.43475 L33,23.3042501 C33,23.4902999 32.9312796,23.6513022 32.7938368,23.7872618 C32.656394,23.9232213 32.4936352,23.9912001 32.3055556,23.9912001 L27.5963542,23.9912001 C27.4010407,24.4563248 27.104458,24.8373636 26.7065972,25.1343278 C26.3087364,25.431292 25.8566287,25.6155502 25.3502604,25.6871079 C25.1115439,26.0305846 24.8203866,26.3221776 24.4767795,26.5618958 C24.1331725,26.8016139 23.7624441,26.9644051 23.3645833,27.0502743 C23.0607624,27.4295298 22.6828003,27.7211229 22.2306858,27.9250622 C21.7785712,28.1290015 21.3138045,28.2166583 20.8363715,28.1880352 C20.4023416,28.4313312 19.946617,28.5726555 19.469184,28.6120122 C18.9917511,28.6513689 18.5306012,28.6012793 18.0857205,28.4617419 C17.6408398,28.3222045 17.2176669,28.1307906 16.8161892,27.8874946 C16.4147115,27.6441986 16.0403663,27.3543945 15.6931424,27.0180735 L12.5789931,23.9912001 L8.69444444,23.9912001 C8.5063648,23.9912001 8.34360601,23.9232213 8.20616319,23.7872618 C8.06872038,23.6513022 8,23.4902999 8,23.3042501 L8,16.091275 C8,15.9052251 8.06872038,15.7442228 8.20616319,15.6082633 C8.34360601,15.4723038 8.5063648,15.404325 8.69444444,15.404325 L13.2625868,15.404325 C13.3638605,15.3041443 13.533853,15.1324085 13.7725694,14.8891125 C14.0112859,14.6458165 14.1830869,14.4740807 14.2879774,14.3739 C14.392868,14.2737193 14.5520099,14.1306061 14.765408,13.9445563 C14.978806,13.7585064 15.1614576,13.6243378 15.3133681,13.5420465 C15.4652785,13.4597552 15.6497385,13.3685206 15.8667535,13.2683398 C16.0837684,13.1681591 16.3080139,13.0983915 16.5394965,13.0590348 C16.7709792,13.0196781 17.0169258,13 17.2773438,13 L18.546875,13 C19.2630244,13 19.9176764,13.2003584 20.5108507,13.6010813 C21.104025,13.2003584 21.758677,13 22.4748264,13 L24.2868924,13 C24.5400765,13 24.7824063,13.021467 25.0138889,13.0644016 C25.2453715,13.1073362 25.4497242,13.1592147 25.6269531,13.2200387 C25.804182,13.2808627 25.9904504,13.3756751 26.1857639,13.5044789 C26.3810774,13.6332827 26.5420277,13.7441954 26.6686198,13.8372203 C26.7952119,13.9302453 26.9507369,14.0715695 27.1351997,14.2611973 C27.3196624,14.450825 27.46072,14.6010939 27.5583767,14.7120082 C27.6560335,14.8229226 27.8043248,14.9946584 28.0032552,15.2272207 C28.2021856,15.4597831 28.3522854,15.6333078 28.453559,15.7478 L32.3055556,15.7478 C32.4936352,15.7478 32.656394,15.8157788 32.7938368,15.9517383 C32.9312796,16.0876978 33,16.2487001 33,16.43475 Z" id="handshake-o---FontAwesome" fill="#FFFFFF"></path>
                </g>
            </g>
        </g>
    </g>
</svg>