<?xml version="1.0" encoding="UTF-8"?>
<svg width="32px" height="32px" viewBox="0 0 56 56" version="1.1" xmlns="http://www.w3.org/2000/svg" xmlns:xlink="http://www.w3.org/1999/xlink">
    <!-- Generator: Sketch 49.3 (51167) - http://www.bohemiancoding.com/sketch -->
    <title>Locations/SelectedCSL</title>
    <desc>Created with Sketch.</desc>
    <defs>
        <circle id="path-1" cx="20" cy="20" r="20"></circle>
        <path d="M12.5714286,15.9419643 C12.5119045,15.9419643 12.373513,15.8325904 12.15625,15.6138393 C11.938987,15.3950882 11.8303571,15.2559527 11.8303571,15.1964286 C11.8303571,15.10119 11.9233622,15.0208337 12.109375,14.9553571 C12.2953878,14.8898806 12.4494042,14.8571429 12.5714286,14.8571429 C12.693453,14.8571429 12.8474693,14.8898806 13.0334821,14.9553571 C13.219495,15.0208337 13.3125,15.10119 13.3125,15.1964286 C13.3125,15.2559527 13.2038701,15.3950882 12.9866071,15.6138393 C12.7693442,15.8325904 12.6309527,15.9419643 12.5714286,15.9419643 Z M13.7767857,14.7321429 C13.7708333,14.7321429 13.7113101,14.6949408 13.5982143,14.6205357 C13.4851185,14.5461306 13.3340783,14.4717266 13.1450893,14.3973214 C12.9561002,14.3229163 12.7648819,14.2857143 12.5714286,14.2857143 C12.3779752,14.2857143 12.1867569,14.3229163 11.9977679,14.3973214 C11.8087788,14.4717266 11.6584827,14.5461306 11.546875,14.6205357 C11.4352673,14.6949408 11.375,14.7321429 11.3660714,14.7321429 C11.3124997,14.7321429 11.1733642,14.6205368 10.9486607,14.3973214 C10.7239572,14.174106 10.6116071,14.0357146 10.6116071,13.9821429 C10.6116071,13.9434522 10.6264879,13.9092263 10.65625,13.8794643 C10.888394,13.6502965 11.1800578,13.4702388 11.53125,13.3392857 C11.8824422,13.2083327 12.229165,13.1428571 12.5714286,13.1428571 C12.9136922,13.1428571 13.2604149,13.2083327 13.6116071,13.3392857 C13.9627994,13.4702388 14.2544631,13.6502965 14.4866071,13.8794643 C14.5163692,13.9092263 14.53125,13.9434522 14.53125,13.9821429 C14.53125,14.0357146 14.4188999,14.174106 14.1941964,14.3973214 C13.9694929,14.6205368 13.8303574,14.7321429 13.7767857,14.7321429 Z M14.9955357,13.5178571 C14.9627975,13.5178571 14.9285716,13.5059525 14.8928571,13.4821429 C14.4880932,13.1696413 14.113097,12.9397329 13.7678571,12.7924107 C13.4226173,12.6450885 13.0238118,12.5714286 12.5714286,12.5714286 C12.3184511,12.5714286 12.0647334,12.6041663 11.8102679,12.6696429 C11.5558023,12.7351194 11.3340783,12.8139876 11.1450893,12.90625 C10.9561002,12.9985124 10.7872031,13.0907733 10.6383929,13.1830357 C10.4895826,13.2752981 10.3720242,13.3541663 10.2857143,13.4196429 C10.1994043,13.4851194 10.1532738,13.5178571 10.1473214,13.5178571 C10.0967259,13.5178571 9.95982254,13.4062511 9.73660714,13.1830357 C9.51339174,12.9598203 9.40178571,12.8214288 9.40178571,12.7678571 C9.40178571,12.7321427 9.41666652,12.6994049 9.44642857,12.6696429 C9.83928768,12.2767837 10.3154734,11.9717273 10.875,11.7544643 C11.4345266,11.5372013 11.9999971,11.4285714 12.5714286,11.4285714 C13.14286,11.4285714 13.7083305,11.5372013 14.2678571,11.7544643 C14.8273838,11.9717273 15.3035695,12.2767837 15.6964286,12.6696429 C15.7261906,12.6994049 15.7410714,12.7321427 15.7410714,12.7678571 C15.7410714,12.8214288 15.6294654,12.9598203 15.40625,13.1830357 C15.1830346,13.4062511 15.0461312,13.5178571 14.9955357,13.5178571 Z M16.2053571,12.3080357 C16.1726189,12.3080357 16.1398811,12.294643 16.1071429,12.2678571 C15.5744021,11.8005929 15.0215802,11.4486619 14.4486607,11.2120536 C13.8757412,10.9754452 13.2500034,10.8571429 12.5714286,10.8571429 C11.8928538,10.8571429 11.267116,10.9754452 10.6941964,11.2120536 C10.1212769,11.4486619 9.56845504,11.8005929 9.03571429,12.2678571 C9.00297603,12.294643 8.97023826,12.3080357 8.9375,12.3080357 C8.88690451,12.3080357 8.74925708,12.1964297 8.52455357,11.9732143 C8.29985007,11.7499989 8.1875,11.6116074 8.1875,11.5580357 C8.1875,11.519345 8.2023808,11.4851192 8.23214286,11.4553571 C8.78869326,10.9017829 9.45088902,10.4732158 10.21875,10.1696429 C10.986611,9.86606991 11.7708293,9.71428571 12.5714286,9.71428571 C13.3720278,9.71428571 14.1562462,9.86606991 14.9241071,10.1696429 C15.6919681,10.4732158 16.3541639,10.9017829 16.9107143,11.4553571 C16.9404763,11.4851192 16.9553571,11.519345 16.9553571,11.5580357 C16.9553571,11.6116074 16.8430071,11.7499989 16.6183036,11.9732143 C16.3936001,12.1964297 16.2559526,12.3080357 16.2053571,12.3080357 Z" id="path-2"></path>
    </defs>
    <g id="Locations/SelectedCSL" stroke="none" stroke-width="1" fill="none" fill-rule="evenodd">
        <g id="Hub" transform="translate(8.000000, 8.000000)">
            <g id="Oval">
                <use fill="#351D13" fill-rule="evenodd" xlink:href="#path-1"></use>
                <circle stroke="#2196F3" stroke-width="8" cx="20" cy="20" r="24"></circle>
            </g>
        </g>
        <path d="M29.7968106,29 L38.1633219,29 C38.6033883,29 38.9601325,29.3556388 38.9601325,29.7943415 L38.9601325,38.1349276 C38.9601325,38.5736303 38.6033883,38.9292691 38.1633219,38.9292691 L29.7968106,38.9292691 C29.3567443,38.9292691 29,38.5736303 29,38.1349276 L29,29.7943415 C29,29.3556388 29.3567443,29 29.7968106,29 Z M35.1091407,30.1915123 C34.9991241,30.1915123 34.909938,30.280422 34.909938,30.3900977 L34.909938,32.9695744 C34.909938,33.0792501 34.9991241,33.1681598 35.1091407,33.1681598 L37.6987751,33.1681598 C37.8087917,33.1681598 37.8979778,33.0792501 37.8979778,32.9695744 L37.8979778,30.3900977 C37.8979778,30.280422 37.8087917,30.1915123 37.6987751,30.1915123 L35.1091407,30.1915123 Z M35.4076853,30.9858538 C35.3343409,30.9858538 35.2748835,30.9265807 35.2748835,30.8534636 C35.2748835,30.7803464 35.3343409,30.7210733 35.4076853,30.7210733 L36.5365003,30.7210733 C36.6098447,30.7210733 36.669302,30.7803464 36.669302,30.8534636 C36.669302,30.9265807 36.6098447,30.9858538 36.5365003,30.9858538 L35.4076853,30.9858538 Z M35.4076853,31.5154148 C35.3343409,31.5154148 35.2748835,31.4561417 35.2748835,31.3830246 C35.2748835,31.3099075 35.3343409,31.2506343 35.4076853,31.2506343 L36.5365003,31.2506343 C36.6098447,31.2506343 36.669302,31.3099075 36.669302,31.3830246 C36.669302,31.4561417 36.6098447,31.5154148 36.5365003,31.5154148 L35.4076853,31.5154148 Z M35.4076853,32.0449759 C35.3343409,32.0449759 35.2748835,31.9857027 35.2748835,31.9125856 C35.2748835,31.8394685 35.3343409,31.7801953 35.4076853,31.7801953 L36.5365003,31.7801953 C36.6098447,31.7801953 36.669302,31.8394685 36.669302,31.9125856 C36.669302,31.9857027 36.6098447,32.0449759 36.5365003,32.0449759 L35.4076853,32.0449759 Z M35.4076853,32.5745369 C35.3343409,32.5745369 35.2748835,32.5152637 35.2748835,32.4421466 C35.2748835,32.3690295 35.3343409,32.3097564 35.4076853,32.3097564 L37.4329122,32.3097564 C37.5062566,32.3097564 37.565714,32.3690295 37.565714,32.4421466 C37.565714,32.5152637 37.5062566,32.5745369 37.4329122,32.5745369 L35.4076853,32.5745369 Z" id="Combined-Shape" fill="#FFFFFF"></path>
        <g id="Group-2" transform="translate(16.000000, 16.000000)">
            <g id="" transform="translate(12.571429, 12.828125) scale(1, -1) rotate(47.000000) translate(-12.571429, -12.828125) ">
                <use fill="#FFFFFF" fill-rule="evenodd" xlink:href="#path-2"></use>
                <use fill="black" fill-opacity="1" xlink:href="#path-2"></use>
            </g>
            <path d="M0,8.24485504 L4.75514496,13 L13,4.75514496 L8.24485504,0 L0,8.24485504 Z M6.9569626,9.69483251 L5.60902058,11.0427745 L1.99872315,7.43247709 L3.34666516,6.08453508 L6.9569626,9.69483251 Z M8.35616644,8.11206249 L7.48910921,8.97911972 L6.67331381,8.16332432 L7.54037104,7.29626709 L8.35616644,8.11206249 Z M7.00480697,6.76070302 L6.13774974,7.62776025 L5.32195433,6.81196485 L6.18901157,5.94490762 L7.00480697,6.76070302 Z M5.6534475,5.40934355 L4.78639027,6.27640078 L3.97059486,5.46060538 L4.8376521,4.59354814 L5.6534475,5.40934355 Z" id="Shape" fill="#FFFFFF" fill-rule="nonzero" transform="translate(6.500000, 6.500000) scale(-1, 1) translate(-6.500000, -6.500000) "></path>
        </g>
    </g>
</svg>