<?xml version="1.0" encoding="UTF-8"?>
<svg width="32px" height="32px" viewBox="0 0 56 56" version="1.1" xmlns="http://www.w3.org/2000/svg" xmlns:xlink="http://www.w3.org/1999/xlink">
    <!-- Generator: Sketch 49.3 (51167) - http://www.bohemiancoding.com/sketch -->
    <title>Locations/SelectedDrop Shipper</title>
    <desc>Created with Sketch.</desc>
    <defs>
        <circle id="path-1" cx="20" cy="20" r="20"></circle>
    </defs>
    <g id="Locations/SelectedDrop-Shipper" stroke="none" stroke-width="1" fill="none" fill-rule="evenodd">
        <g id="Hub" transform="translate(8.000000, 8.000000)">
            <g id="Oval">
                <use fill="#351D13" fill-rule="evenodd" xlink:href="#path-1"></use>
                <circle stroke="#2196F3" stroke-width="8" cx="20" cy="20" r="24"></circle>
            </g>
        </g>
        <g id="Group-16" transform="translate(20.000000, 17.000000)" fill="#FFFFFF">
            <path d="M3.63854167,12.5321742 L12.0385417,12.5321742 C12.4803695,12.5321742 12.8385417,12.8956137 12.8385417,13.3439389 L12.8385417,21.8674683 C12.8385417,22.3157936 12.4803695,22.679233 12.0385417,22.679233 L3.63854167,22.679233 C3.19671387,22.679233 2.83854167,22.3157936 2.83854167,21.8674683 L2.83854167,13.3439389 C2.83854167,12.8956137 3.19671387,12.5321742 3.63854167,12.5321742 Z M8.97213542,13.7498213 C8.86167847,13.7498213 8.77213542,13.8406811 8.77213542,13.9527625 L8.77213542,16.5888177 C8.77213542,16.700899 8.86167847,16.7917589 8.97213542,16.7917589 L11.5721354,16.7917589 C11.6825924,16.7917589 11.7721354,16.700899 11.7721354,16.5888177 L11.7721354,13.9527625 C11.7721354,13.8406811 11.6825924,13.7498213 11.5721354,13.7498213 L8.97213542,13.7498213 Z M9.271875,14.561586 C9.19823703,14.561586 9.13854167,14.5010127 9.13854167,14.4262919 C9.13854167,14.351571 9.19823703,14.2909978 9.271875,14.2909978 L10.4052083,14.2909978 C10.4788463,14.2909978 10.5385417,14.351571 10.5385417,14.4262919 C10.5385417,14.5010127 10.4788463,14.561586 10.4052083,14.561586 L9.271875,14.561586 Z M9.271875,15.1027625 C9.19823703,15.1027625 9.13854167,15.0421892 9.13854167,14.9674683 C9.13854167,14.8927475 9.19823703,14.8321742 9.271875,14.8321742 L10.4052083,14.8321742 C10.4788463,14.8321742 10.5385417,14.8927475 10.5385417,14.9674683 C10.5385417,15.0421892 10.4788463,15.1027625 10.4052083,15.1027625 L9.271875,15.1027625 Z M9.271875,15.6439389 C9.19823703,15.6439389 9.13854167,15.5833657 9.13854167,15.5086448 C9.13854167,15.4339239 9.19823703,15.3733507 9.271875,15.3733507 L10.4052083,15.3733507 C10.4788463,15.3733507 10.5385417,15.4339239 10.5385417,15.5086448 C10.5385417,15.5833657 10.4788463,15.6439389 10.4052083,15.6439389 L9.271875,15.6439389 Z M9.271875,16.1851154 C9.19823703,16.1851154 9.13854167,16.1245422 9.13854167,16.0498213 C9.13854167,15.9751004 9.19823703,15.9145272 9.271875,15.9145272 L11.3052083,15.9145272 C11.3788463,15.9145272 11.4385417,15.9751004 11.4385417,16.0498213 C11.4385417,16.1245422 11.3788463,16.1851154 11.3052083,16.1851154 L9.271875,16.1851154 Z" id="Combined-Shape"></path>
            <path d="M0.560595249,6.13175543 C0.559519455,6.13569812 0.558464375,6.13964551 0.557430087,6.14359755 C0.549660713,6.12970872 0.542105159,6.11558042 0.534765099,6.10120934 C0.499098013,6.05624417 0.47734294,6.00420548 0.469111901,5.95064863 C0.394060163,5.74687468 0.354806968,5.50200636 0.354806968,5.20921262 C0.354806968,2.41666205 3.71431148,0.152852515 7.85847032,0.152852515 C12.0026292,0.152852515 15.3621337,2.41666205 15.3621337,5.20921262 C15.3621337,5.66228842 15.27926,6.00060591 15.1227053,6.24947646 C15.1071737,6.28316415 15.0855541,6.31461821 15.0578959,6.34210503 C15.0565606,6.3438241 15.0552212,6.34553819 15.0538775,6.3472473 C15.0538487,6.34686916 15.0538198,6.34649104 15.0537907,6.34611297 C15.0537268,6.34617421 15.0536629,6.34623543 15.053599,6.34629663 L7.61350041,13.4704838 L7.57987353,13.5655139 L7.51971265,13.5368577 C7.41214482,13.5865917 7.28317609,13.5713761 7.18931504,13.4928727 L7.06660687,13.5203176 L7.05095808,13.4482775 C6.93835569,13.4787647 6.81337996,13.4443342 6.73186297,13.3490007 L0.560595249,6.13175543 Z M0.858938954,5.59194639 C0.918594118,5.60755696 0.97435688,5.64106022 1.01778507,5.69184912 L6.8469191,12.508972 L5.33560813,5.55156292 L5.34396227,5.54969444 C4.88776926,5.05835834 4.06261637,4.73018903 3.12043477,4.73018903 C2.15149578,4.73018903 1.30632698,5.07726263 0.858938954,5.59194639 Z M5.96055541,5.46131758 L7.44266575,12.2842998 L9.93841804,5.23127095 C9.46755558,4.92174444 8.81603149,4.73018903 8.09619666,4.73018903 C7.21170243,4.73018903 6.4303449,5.01940264 5.96055541,5.46131758 Z M10.5008292,5.31085476 L8.08349918,12.1422611 L14.6215989,5.88177329 C14.690675,5.81563021 14.7814788,5.78737829 14.8691034,5.79628495 C14.4839368,5.17125319 13.5489386,4.73018903 12.4566522,4.73018903 C11.6769867,4.73018903 10.9774593,4.95491095 10.5008292,5.31085476 Z" id="Combined-Shape" fill-rule="nonzero" transform="translate(7.858470, 6.859183) rotate(-1.000000) translate(-7.858470, -6.859183) "></path>
        </g>
    </g>
</svg>