<?xml version="1.0" encoding="UTF-8"?>
<svg width="32px" height="32px" viewBox="0 0 56 56" version="1.1" xmlns="http://www.w3.org/2000/svg" xmlns:xlink="http://www.w3.org/1999/xlink">
    <!-- Generator: Sketch 49.3 (51167) - http://www.bohemiancoding.com/sketch -->
    <title>Locations/SelectedHub</title>
    <desc>Created with Sketch.</desc>
    <defs>
        <circle id="path-1" cx="20" cy="20" r="20"></circle>
    </defs>
    <g id="Locations/SelectedHub" stroke="none" stroke-width="1" fill="none" fill-rule="evenodd">
        <g id="Hub" transform="translate(8.000000, 8.000000)">
            <g id="Oval">
                <use fill="#351D13" fill-rule="evenodd" xlink:href="#path-1"></use>
                <circle stroke="#2196F3" stroke-width="8" cx="20" cy="20" r="24"></circle>
            </g>
            <path d="M14.0644284,27.554404 L14.0644284,28.9306896 L18.881428,28.9306896 L18.881428,27.554404 L14.0644284,27.554404 Z M14.0644284,26.8662612 L18.881428,26.8662612 L18.881428,25.4899756 L14.0644284,25.4899756 L14.0644284,26.8662612 Z M14.0644284,29.6188324 L14.0644284,29.6229944 L12,29.6188324 L12,13.4394765 L28,13.4394765 L28,29.6510891 L25.762856,29.6465789 L25.762856,23.3865704 L20.9458564,23.3865704 L20.9458564,29.6368676 L18.881428,29.6327056 L18.881428,29.6188324 L14.0644284,29.6188324 Z M14.0644284,24.8018328 L18.881428,24.8018328 L18.881428,23.3865704 L14.0644284,23.3865704 L14.0644284,24.8018328 Z M28,12.0631909 L12,12.0631909 L12,11 L28,11 L28,12.0631909 Z M23.0102848,18.4562557 C23.0102848,18.484372 23.0126278,18.5242028 23.0173138,18.5757493 C23.0196568,18.64604 23.0325433,18.7210157 23.0559735,18.8006785 C23.1262642,19.0466961 23.2645006,19.2388212 23.4706867,19.3770596 C23.5058321,19.4028329 23.5620638,19.4368062 23.6393836,19.4789807 L23.702645,19.5176404 C23.9346044,19.6394776 24.1782753,19.7566271 24.4336649,19.8690923 C24.438351,19.8737783 24.4442084,19.8737783 24.4512375,19.8690923 C24.6644527,19.7753713 24.8835222,19.6699368 25.1084525,19.5527856 C25.2115456,19.498896 25.3064367,19.4438358 25.3931286,19.3876032 C25.5782275,19.2657659 25.7106064,19.1052712 25.7902692,18.9061141 C25.8441587,18.7749047 25.8711031,18.6308109 25.8711031,18.4738283 L25.8711031,16.7587431 C25.8711031,16.751714 25.8675886,16.747028 25.8605596,16.744685 L25.7691821,16.6989962 C25.5747111,16.6076183 25.3509556,16.5385001 25.097909,16.4916396 C25.0416764,16.4799245 24.9549858,16.4670381 24.8378346,16.4529799 C24.7909741,16.4482939 24.7230274,16.4436079 24.6339925,16.4389218 C24.589475,16.4342358 24.5250428,16.4318928 24.4406939,16.4318928 C24.3914904,16.4318928 24.3176863,16.4342358 24.2192793,16.4389218 C24.1653897,16.4412649 24.0868996,16.4482938 23.9838065,16.460009 L23.9697484,16.4635235 C23.8479112,16.4775816 23.7272472,16.4986685 23.607753,16.5267848 C23.4413982,16.5666162 23.289104,16.618162 23.1508655,16.6814236 C23.1297783,16.6907957 23.0969765,16.7060252 23.052459,16.7271124 L23.0208283,16.744685 C23.0137992,16.747028 23.0102848,16.751714 23.0102848,16.7587431 L23.0102848,18.4562557 Z" id="Combined-Shape" fill="#FFFFFF"></path>
        </g>
    </g>
</svg>