<?xml version="1.0" encoding="UTF-8"?>
<svg width="32px" height="32px" viewBox="0 0 56 56" version="1.1" xmlns="http://www.w3.org/2000/svg" xmlns:xlink="http://www.w3.org/1999/xlink">
    <!-- Generator: Sketch 49.3 (51167) - http://www.bohemiancoding.com/sketch -->
    <title>Locations/SelectedFreight</title>
    <desc>Created with Sketch.</desc>
    <defs>
        <circle id="path-1" cx="20" cy="20" r="20"></circle>
    </defs>
    <g id="Locations/SelectedFreight" stroke="none" stroke-width="1" fill="none" fill-rule="evenodd">
        <g id="Hub" transform="translate(8.000000, 8.000000)">
            <g id="Oval">
                <use fill="#351D13" fill-rule="evenodd" xlink:href="#path-1"></use>
                <circle stroke="#2196F3" stroke-width="8" cx="20" cy="20" r="24"></circle>
            </g>
        </g>
        <g id="Freight" transform="translate(16.000000, 18.000000)" fill="#FFFFFF">
            <path d="M1.68,19.3738025 L1.68,17.4538025 L0.72,17.4538025 C0.45490332,17.4538025 0.24,17.2388992 0.24,16.9738025 C0.24,16.7087059 0.45490332,16.4938025 0.72,16.4938025 L23.28,16.4938025 C23.5450967,16.4938025 23.76,16.7087059 23.76,16.9738025 C23.76,17.2388992 23.5450967,17.4538025 23.28,17.4538025 L22.56,17.4538025 L22.56,19.3738025 L23.28,19.3738025 C23.5450967,19.3738025 23.76,19.5887059 23.76,19.8538025 C23.76,20.1188992 23.5450967,20.3338025 23.28,20.3338025 L0.72,20.3338025 C0.45490332,20.3338025 0.24,20.1188992 0.24,19.8538025 C0.24,19.5887059 0.45490332,19.3738025 0.72,19.3738025 L1.68,19.3738025 Z M5.136,8.58619746 L11.184,8.58619746 C11.502116,8.58619746 11.76,8.84408145 11.76,9.16219746 L11.76,15.2101975 C11.76,15.5283135 11.502116,15.7861975 11.184,15.7861975 L5.136,15.7861975 C4.81788398,15.7861975 4.56,15.5283135 4.56,15.2101975 L4.56,9.16219746 C4.56,8.84408145 4.81788398,8.58619746 5.136,8.58619746 Z M9.216,0.666197464 L15.264,0.666197464 C15.582116,0.666197464 15.84,0.924081448 15.84,1.24219746 L15.84,7.29019746 C15.84,7.60831348 15.582116,7.86619746 15.264,7.86619746 L9.216,7.86619746 C8.89788398,7.86619746 8.64,7.60831348 8.64,7.29019746 L8.64,1.24219746 C8.64,0.924081448 8.89788398,0.666197464 9.216,0.666197464 Z M13.0561875,1.53019746 C12.9766585,1.53019746 12.9121875,1.59466846 12.9121875,1.67419746 L12.9121875,3.54465059 C12.9121875,3.62417959 12.9766585,3.68865059 13.0561875,3.68865059 L14.9281875,3.68865059 C15.0077165,3.68865059 15.0721875,3.62417959 15.0721875,3.54465059 L15.0721875,1.67419746 C15.0721875,1.59466846 15.0077165,1.53019746 14.9281875,1.53019746 L13.0561875,1.53019746 Z M13.056,8.58619746 L19.104,8.58619746 C19.422116,8.58619746 19.68,8.84408145 19.68,9.16219746 L19.68,15.2101975 C19.68,15.5283135 19.422116,15.7861975 19.104,15.7861975 L13.056,15.7861975 C12.737884,15.7861975 12.48,15.5283135 12.48,15.2101975 L12.48,9.16219746 C12.48,8.84408145 12.737884,8.58619746 13.056,8.58619746 Z M16.8961875,9.45019746 C16.8166585,9.45019746 16.7521875,9.51466846 16.7521875,9.59419746 L16.7521875,11.4646506 C16.7521875,11.5441796 16.8166585,11.6086506 16.8961875,11.6086506 L18.7681875,11.6086506 C18.8477165,11.6086506 18.9121875,11.5441796 18.9121875,11.4646506 L18.9121875,9.59419746 C18.9121875,9.51466846 18.8477165,9.45019746 18.7681875,9.45019746 L16.8961875,9.45019746 Z M8.9761875,9.45019746 C8.8966585,9.45019746 8.8321875,9.51466846 8.8321875,9.59419746 L8.8321875,11.4646506 C8.8321875,11.5441796 8.8966585,11.6086506 8.9761875,11.6086506 L10.8481875,11.6086506 C10.9277165,11.6086506 10.9921875,11.5441796 10.9921875,11.4646506 L10.9921875,9.59419746 C10.9921875,9.51466846 10.9277165,9.45019746 10.8481875,9.45019746 L8.9761875,9.45019746 Z M13.272,2.10619746 C13.2189807,2.10619746 13.176,2.0632168 13.176,2.01019746 C13.176,1.95717813 13.2189807,1.91419746 13.272,1.91419746 L14.088,1.91419746 C14.1410193,1.91419746 14.184,1.95717813 14.184,2.01019746 C14.184,2.0632168 14.1410193,2.10619746 14.088,2.10619746 L13.272,2.10619746 Z M13.272,2.49019746 C13.2189807,2.49019746 13.176,2.4472168 13.176,2.39419746 C13.176,2.34117813 13.2189807,2.29819746 13.272,2.29819746 L14.088,2.29819746 C14.1410193,2.29819746 14.184,2.34117813 14.184,2.39419746 C14.184,2.4472168 14.1410193,2.49019746 14.088,2.49019746 L13.272,2.49019746 Z M13.272,2.87419746 C13.2189807,2.87419746 13.176,2.8312168 13.176,2.77819746 C13.176,2.72517813 13.2189807,2.68219746 13.272,2.68219746 L14.088,2.68219746 C14.1410193,2.68219746 14.184,2.72517813 14.184,2.77819746 C14.184,2.8312168 14.1410193,2.87419746 14.088,2.87419746 L13.272,2.87419746 Z M13.272,3.25819746 C13.2189807,3.25819746 13.176,3.2152168 13.176,3.16219746 C13.176,3.10917813 13.2189807,3.06619746 13.272,3.06619746 L14.736,3.06619746 C14.7890193,3.06619746 14.832,3.10917813 14.832,3.16219746 C14.832,3.2152168 14.7890193,3.25819746 14.736,3.25819746 L13.272,3.25819746 Z M17.112,10.0261975 C17.0589807,10.0261975 17.016,9.9832168 17.016,9.93019746 C17.016,9.87717813 17.0589807,9.83419746 17.112,9.83419746 L17.928,9.83419746 C17.9810193,9.83419746 18.024,9.87717813 18.024,9.93019746 C18.024,9.9832168 17.9810193,10.0261975 17.928,10.0261975 L17.112,10.0261975 Z M17.112,10.4101975 C17.0589807,10.4101975 17.016,10.3672168 17.016,10.3141975 C17.016,10.2611781 17.0589807,10.2181975 17.112,10.2181975 L17.928,10.2181975 C17.9810193,10.2181975 18.024,10.2611781 18.024,10.3141975 C18.024,10.3672168 17.9810193,10.4101975 17.928,10.4101975 L17.112,10.4101975 Z M17.112,10.7941975 C17.0589807,10.7941975 17.016,10.7512168 17.016,10.6981975 C17.016,10.6451781 17.0589807,10.6021975 17.112,10.6021975 L17.928,10.6021975 C17.9810193,10.6021975 18.024,10.6451781 18.024,10.6981975 C18.024,10.7512168 17.9810193,10.7941975 17.928,10.7941975 L17.112,10.7941975 Z M17.112,11.1781975 C17.0589807,11.1781975 17.016,11.1352168 17.016,11.0821975 C17.016,11.0291781 17.0589807,10.9861975 17.112,10.9861975 L18.576,10.9861975 C18.6290193,10.9861975 18.672,11.0291781 18.672,11.0821975 C18.672,11.1352168 18.6290193,11.1781975 18.576,11.1781975 L17.112,11.1781975 Z M9.192,10.0261975 C9.13898066,10.0261975 9.096,9.9832168 9.096,9.93019746 C9.096,9.87717813 9.13898066,9.83419746 9.192,9.83419746 L10.008,9.83419746 C10.0610193,9.83419746 10.104,9.87717813 10.104,9.93019746 C10.104,9.9832168 10.0610193,10.0261975 10.008,10.0261975 L9.192,10.0261975 Z M9.192,10.4101975 C9.13898066,10.4101975 9.096,10.3672168 9.096,10.3141975 C9.096,10.2611781 9.13898066,10.2181975 9.192,10.2181975 L10.008,10.2181975 C10.0610193,10.2181975 10.104,10.2611781 10.104,10.3141975 C10.104,10.3672168 10.0610193,10.4101975 10.008,10.4101975 L9.192,10.4101975 Z M9.192,10.7941975 C9.13898066,10.7941975 9.096,10.7512168 9.096,10.6981975 C9.096,10.6451781 9.13898066,10.6021975 9.192,10.6021975 L10.008,10.6021975 C10.0610193,10.6021975 10.104,10.6451781 10.104,10.6981975 C10.104,10.7512168 10.0610193,10.7941975 10.008,10.7941975 L9.192,10.7941975 Z M9.192,11.1781975 C9.13898066,11.1781975 9.096,11.1352168 9.096,11.0821975 C9.096,11.0291781 9.13898066,10.9861975 9.192,10.9861975 L10.656,10.9861975 C10.7090193,10.9861975 10.752,11.0291781 10.752,11.0821975 C10.752,11.1352168 10.7090193,11.1781975 10.656,11.1781975 L9.192,11.1781975 Z M4.56,19.3738025 L10.56,19.3738025 L10.56,17.4538025 L4.56,17.4538025 L4.56,19.3738025 Z M13.44,19.3738025 L19.68,19.3738025 L19.68,17.4538025 L13.44,17.4538025 L13.44,19.3738025 Z" id="Combined-Shape"></path>
        </g>
    </g>
</svg>