<?xml version="1.0" encoding="UTF-8"?>
<svg width="32px" height="32px" viewBox="0 0 56 56" version="1.1" xmlns="http://www.w3.org/2000/svg" xmlns:xlink="http://www.w3.org/1999/xlink">
    <!-- Generator: Sketch 49.3 (51167) - http://www.bohemiancoding.com/sketch -->
    <title>Locations/SelectedCPX</title>
    <desc>Created with Sketch.</desc>
    <defs>
        <circle id="path-1" cx="20" cy="20" r="20"></circle>
    </defs>
    <g id="Locations/SelectedCPX" stroke="none" stroke-width="1" fill="none" fill-rule="evenodd">
        <g id="Hub" transform="translate(8.000000, 8.000000)">
            <g id="Oval">
                <use fill="#351D13" fill-rule="evenodd" xlink:href="#path-1"></use>
                <circle stroke="#2196F3" stroke-width="8" cx="20" cy="20" r="24"></circle>
            </g>
        </g>
        <path d="M23.8,29 L32.2,29 C32.6418278,29 33,29.3581722 33,29.8 L33,38.2 C33,38.6418278 32.6418278,39 32.2,39 L23.8,39 C23.3581722,39 23,38.6418278 23,38.2 L23,29.8 C23,29.3581722 23.3581722,29 23.8,29 Z M29.2,30 C29.0895431,30 29,30.0896072 29,30.2001433 L29,32.7998567 C29,32.9103928 29.0895431,33 29.2,33 L31.8,33 C31.9104569,33 32,32.9103928 32,32.7998567 L32,30.2001433 C32,30.0896072 31.9104569,30 31.8,30 L29.2,30 Z M29.0952381,30.4 C29.0426395,30.4 29,30.3104569 29,30.2 C29,30.0895431 29.0426395,30 29.0952381,30 L29.9047619,30 C29.9573605,30 30,30.0895431 30,30.2 C30,30.3104569 29.9573605,30.4 29.9047619,30.4 L29.0952381,30.4 Z M29.0952381,31.4 C29.0426395,31.4 29,31.3104569 29,31.2 C29,31.0895431 29.0426395,31 29.0952381,31 L29.9047619,31 C29.9573605,31 30,31.0895431 30,31.2 C30,31.3104569 29.9573605,31.4 29.9047619,31.4 L29.0952381,31.4 Z M29.0952381,32.4 C29.0426395,32.4 29,32.3104569 29,32.2 C29,32.0895431 29.0426395,32 29.0952381,32 L29.9047619,32 C29.9573605,32 30,32.0895431 30,32.2 C30,32.3104569 29.9573605,32.4 29.9047619,32.4 L29.0952381,32.4 Z M29.115942,32.4 C29.051909,32.4 29,32.3104569 29,32.2 C29,32.0895431 29.051909,32 29.115942,32 L30.884058,32 C30.948091,32 31,32.0895431 31,32.2 C31,32.3104569 30.948091,32.4 30.884058,32.4 L29.115942,32.4 Z M23,24.1752717 C23,24.0339667 23.0474963,23.9103266 23.1424904,23.8043478 L25.6495507,21.1508152 C25.7445448,21.0502712 25.86136,21 26,21 C26.1412074,21 26.256739,21.0502712 26.3465982,21.1508152 L28.8536585,23.8043478 C28.95122,23.9076092 29,24.0312493 29,24.1752717 C29,24.3165768 28.95122,24.4388582 28.8536585,24.5421196 L28.5648267,24.8478261 C28.4724001,24.9510875 28.3568685,25.0027174 28.2182285,25.0027174 C28.0795885,25.0027174 27.9640569,24.9510875 27.8716303,24.8478261 L26.7394095,23.6535326 L26.7394095,26.5230978 C26.7394095,26.6644029 26.6912713,26.7792115 26.5949936,26.8675272 C26.4987158,26.9558428 26.3825424,27 26.2464698,27 L25.7535302,27 C25.6174576,27 25.5012842,26.9558428 25.4050064,26.8675272 C25.3087287,26.7792115 25.2605905,26.6644029 25.2605905,26.5230978 L25.2605905,23.6535326 L24.1283697,24.8478261 C24.0359431,24.9510875 23.9204115,25.0027174 23.7817715,25.0027174 C23.6456989,25.0027174 23.5288837,24.9510875 23.4313222,24.8478261 L23.1424904,24.5421196 C23.0474963,24.4361408 23,24.3138594 23,24.1752717 Z M27,19.8247283 C27,19.6861406 27.0474963,19.5638592 27.1424904,19.4578804 L27.4313222,19.1521739 C27.5288837,19.0489125 27.6456989,18.9972826 27.7817715,18.9972826 C27.9204115,18.9972826 28.0359431,19.0489125 28.1283697,19.1521739 L29.2605905,20.3464674 L29.2605905,17.4769022 C29.2605905,17.3355971 29.3087287,17.2207885 29.4050064,17.1324728 C29.5012842,17.0441572 29.6174576,17 29.7535302,17 L30.2464698,17 C30.3825424,17 30.4987158,17.0441572 30.5949936,17.1324728 C30.6912713,17.2207885 30.7394095,17.3355971 30.7394095,17.4769022 L30.7394095,20.3464674 L31.8716303,19.1521739 C31.9640569,19.0489125 32.0795885,18.9972826 32.2182285,18.9972826 C32.3568685,18.9972826 32.4724001,19.0489125 32.5648267,19.1521739 L32.8536585,19.4578804 C32.95122,19.5611418 33,19.6834232 33,19.8247283 C33,19.9687507 32.95122,20.0923908 32.8536585,20.1956522 L30.3465982,22.8491848 C30.256739,22.9497288 30.1412074,23 30,23 C29.86136,23 29.7445448,22.9497288 29.6495507,22.8491848 L27.1424904,20.1956522 C27.0474963,20.0896734 27,19.9660333 27,19.8247283 Z" id="Combined-Shape" fill="#FFFFFF"></path>
    </g>
</svg>