<?xml version="1.0" encoding="UTF-8"?>
<svg width="32px" height="32px" viewBox="0 0 56 56" version="1.1" xmlns="http://www.w3.org/2000/svg" xmlns:xlink="http://www.w3.org/1999/xlink">
    <!-- Generator: Sketch 49.3 (51167) - http://www.bohemiancoding.com/sketch -->
    <title>Locations/SelectedTrailer Leasing Yard</title>
    <desc>Created with Sketch.</desc>
    <defs>
        <circle id="path-1" cx="20" cy="20" r="20"></circle>
    </defs>
    <g id="Locations/SelectedTrailer-Leasing-Yard" stroke="none" stroke-width="1" fill="none" fill-rule="evenodd">
        <g id="Hub" transform="translate(8.000000, 8.000000)">
            <g id="Oval">
                <use fill="#351D13" fill-rule="evenodd" xlink:href="#path-1"></use>
                <circle stroke="#2196F3" stroke-width="8" cx="20" cy="20" r="24"></circle>
            </g>
        </g>
        <g id="Trailer-Yard" transform="translate(11.000000, 19.000000)" fill="#FFFFFF">
            <path d="M28.5236443,14.2793729 L28.5236443,15.9584128 L27.6728562,15.9584128 L27.6728562,14.2793729 L17.3613163,14.2793729 L15.8864888,14.2793729 C16.0004987,14.4471007 16.0655517,14.6412562 16.0655517,14.8483912 C16.0655517,15.4856147 15.4498868,16 14.6871974,16 C13.924508,16 13.308843,15.4856147 13.308843,14.8483912 C13.308843,14.6412562 13.3738961,14.4471007 13.487906,14.2793729 L12.8568317,14.2793729 C12.9708416,14.4471007 13.0358947,14.6412562 13.0358947,14.8483912 C13.0358947,15.4856147 12.4202297,16 11.6575403,16 C10.8948509,16 10.279186,15.4856147 10.279186,14.8483912 C10.279186,14.6412562 10.344239,14.4471007 10.4582489,14.2793729 L9.3770787,14.2793729 L9.3770787,6.84011774 C9.3770787,6.41288464 9.79545841,6.06333029 10.3068114,6.06333029 L30,6.06333029 L30,14.2793729 L28.5236443,14.2793729 Z M8.39598967,13.9410401 C7.66740216,13.9094529 7.09064663,13.4077689 7.09064663,12.7910099 C7.09064663,12.5838749 7.15569969,12.3897194 7.26970957,12.2219917 L6.18853935,12.2219917 L6.18853935,4.78273646 C6.18853935,4.35550336 6.60691906,4.00594901 7.11827203,4.00594901 L26.8114606,4.00594901 L26.8114606,5.32349196 L9.81626687,5.32349196 C9.04268927,5.32349196 8.39598967,5.86380655 8.39598967,6.54569505 L8.39598967,12.2233166 C8.06603198,12.2696462 7.81557154,12.5089231 7.81557154,12.7982075 C7.81557154,13.0874919 8.06603198,13.3267688 8.39598967,13.3730983 L8.39598967,13.9410401 Z M5.20745032,11.9350911 C4.47886281,11.9035039 3.90210728,11.4018199 3.90210728,10.7850609 C3.90210728,10.5779259 3.96716034,10.3837704 4.08117022,10.2160427 L3,10.2160427 L3,2.77678745 C3,2.34955435 3.41837971,2 3.92973268,2 L23.6229213,2 L23.6229213,3.31754295 L6.62772752,3.31754295 C5.85414992,3.31754295 5.20745032,3.85785754 5.20745032,4.53974604 L5.20745032,10.2173676 C4.87749263,10.2636972 4.62703219,10.5029741 4.62703219,10.7922585 C4.62703219,11.0815429 4.87749263,11.3208198 5.20745032,11.3671493 L5.20745032,11.9350911 Z M14.7310674,15.4385908 C15.1169065,15.4385908 15.428367,15.1781832 15.428367,14.8555888 C15.428367,14.5329943 15.1169065,14.2725868 14.7310674,14.2725868 C14.3452284,14.2725868 14.0337679,14.5329943 14.0337679,14.8555888 C14.0337679,15.1781832 14.3452284,15.4385908 14.7310674,15.4385908 Z M11.0041109,14.8555888 C11.0041109,15.1781832 11.3155713,15.4385908 11.7014104,15.4385908 C12.0872495,15.4385908 12.3987099,15.1781832 12.3987099,14.8555888 C12.3987099,14.5329943 12.0872495,14.2725868 11.7014104,14.2725868 C11.3155713,14.2725868 11.0041109,14.5329943 11.0041109,14.8555888 Z" id="146-copy"></path>
        </g>
    </g>
</svg>