<?xml version="1.0" encoding="UTF-8"?>
<svg width="32px" height="32px" viewBox="0 0 56 56" version="1.1" xmlns="http://www.w3.org/2000/svg" xmlns:xlink="http://www.w3.org/1999/xlink">
    <!-- Generator: Sketch 49.3 (51167) - http://www.bohemiancoding.com/sketch -->
    <title>Locations/Selectedairport</title>
    <desc>Created with Sketch.</desc>
    <defs>
        <circle id="path-1" cx="20" cy="20" r="20"></circle>
    </defs>
    <g id="Locations/Selectedairport" stroke="none" stroke-width="1" fill="none" fill-rule="evenodd">
        <g id="Hub" transform="translate(8.000000, 8.000000)">
            <g id="Oval">
                <use fill="#351D13" fill-rule="evenodd" xlink:href="#path-1"></use>
                <circle stroke="#2196F3" stroke-width="8" cx="20" cy="20" r="24"></circle>
            </g>
        </g>
        <path d="M37.429789,19.3411666 C37.8226481,19.8054547 37.876219,20.4661623 37.5905033,21.3233095 C37.3047876,22.1804566 36.8226495,22.9483061 36.1440747,23.6268809 L33.9878247,25.7831309 L36.1306818,35.1045595 C36.1753249,35.2742032 36.121754,35.4215231 35.9699676,35.5465238 L34.2556818,36.8322381 C34.1931815,36.8858097 34.1083609,36.9125952 34.0012176,36.9125952 C33.9655031,36.9125952 33.9342534,36.908131 33.9074676,36.8992023 C33.7735383,36.8724165 33.6797892,36.8009886 33.6262176,36.6849166 L29.8896104,29.8813452 L26.4208604,33.3500952 L27.1306818,35.9483095 C27.1753249,36.100096 27.139611,36.2384874 27.023539,36.3634881 L25.7378247,37.6492023 C25.6574672,37.7295599 25.5547896,37.7697381 25.429789,37.7697381 L25.4030033,37.7697381 C25.269074,37.7518808 25.1619322,37.6938457 25.0815747,37.5956309 L22.5503247,34.2206309 L19.1753247,31.6893809 C19.0771099,31.6268806 19.0190748,31.5242031 19.0012176,31.3813452 C18.9922889,31.2652732 19.0324671,31.1536672 19.1217533,31.0465238 L20.4074676,29.7474166 C20.4878251,29.6670591 20.5905026,29.6268809 20.7155033,29.6268809 C20.769075,29.6268809 20.8047889,29.6313451 20.8226461,29.6402738 L23.4208604,30.3500952 L26.8896104,26.8813452 L20.086039,23.1447381 C19.9610384,23.0733091 19.8851463,22.9661673 19.8583604,22.8233095 C19.8405032,22.6804516 19.8806813,22.5599171 19.9788961,22.4617023 L21.6931818,20.7474166 C21.8181825,20.6313446 21.9521097,20.5956307 22.0949676,20.6402738 L31.0012176,22.7697381 L33.1440747,20.6268809 C33.8226495,19.9483061 34.590499,19.4661681 35.4476461,19.1804523 C36.3047933,18.8947366 36.9655009,18.9483075 37.429789,19.3411666 Z" id="plane---FontAwesome" fill="#FFFFFF"></path>
    </g>
</svg>