<?xml version="1.0" encoding="UTF-8"?>
<svg width="32px" height="32px" viewBox="0 0 56 56" version="1.1" xmlns="http://www.w3.org/2000/svg" xmlns:xlink="http://www.w3.org/1999/xlink">
    <!-- Generator: Sketch 49.3 (51167) - http://www.bohemiancoding.com/sketch -->
    <title>Locations/SelectedMeet-Point</title>
    <desc>Created with Sketch.</desc>
    <defs>
        <circle id="path-1" cx="20" cy="20" r="20"></circle>
    </defs>
    <g id="Locations/SelectedMeet-Point" stroke="none" stroke-width="1" fill="none" fill-rule="evenodd">
        <g id="Hub" transform="translate(8.000000, 8.000000)">
            <g id="Oval">
                <use fill="#351D13" fill-rule="evenodd" xlink:href="#path-1"></use>
                <circle stroke="#2196F3" stroke-width="8" cx="20" cy="20" r="24"></circle>
            </g>
        </g>
        <path d="M18.0833333,29.6173001 C18.3726866,29.6173001 18.5752309,29.5028095 18.6909722,29.273825 C18.8067135,29.0448406 18.8067135,28.8158595 18.6909722,28.586875 C18.5752309,28.3578906 18.3726866,28.2434 18.0833333,28.2434 C17.79398,28.2434 17.5914358,28.3578906 17.4756944,28.586875 C17.3599531,28.8158595 17.3599531,29.0448406 17.4756944,29.273825 C17.5914358,29.5028095 17.79398,29.6173001 18.0833333,29.6173001 Z M34.0664062,28.9947516 C33.9940679,28.9017267 33.8548187,28.7228352 33.6486545,28.4580719 C33.4424903,28.1933086 33.2923905,28.0001059 33.1983507,27.8784579 C33.1043109,27.7568099 32.9668701,27.5814962 32.7860243,27.3525118 C32.6051785,27.1235273 32.4514619,26.9339024 32.3248698,26.7836313 C32.1982777,26.6333602 32.0517948,26.4652023 31.8854167,26.2791524 C31.7190385,26.0931025 31.5562797,25.9177889 31.3971354,25.7532063 L30.0407986,27.2559094 C29.4403905,27.9285513 28.6862748,28.2577116 27.7784288,28.2434 C26.8705828,28.2290885 26.1273177,27.8784613 25.5486111,27.1915079 C25.1362827,26.6977601 24.93193,26.1324631 24.9355469,25.4956 C24.9391638,24.8587369 25.1507502,24.2970178 25.5703125,23.8104258 L27.4908854,21.5993055 C27.3317411,21.5205921 27.1472811,21.4615579 26.9375,21.4222012 C26.7277189,21.3828445 26.5559179,21.3613775 26.422092,21.3577996 C26.2882661,21.3542217 26.0839134,21.3560106 25.8090278,21.3631664 C25.5341421,21.3703222 25.3569159,21.3739 25.2773438,21.3739 C24.6118312,21.3739 24.040367,21.6100367 23.562934,22.0823172 L21.8485243,23.778225 L20.1666667,23.778225 L20.1666667,29.6173001 C20.2028358,29.6173001 20.2787899,29.6155111 20.3945312,29.6119333 C20.5102726,29.6083554 20.5898435,29.6083554 20.6332465,29.6119333 C20.6766495,29.6155111 20.7471783,29.6226668 20.8448351,29.6334004 C20.9424918,29.6441341 21.0166375,29.6602343 21.0672743,29.6817016 C21.1179111,29.7031689 21.1812062,29.7335805 21.2571615,29.7729372 C21.3331167,29.8122939 21.4000286,29.8605946 21.4578993,29.9178407 L24.6805556,33.0520501 C25.5124463,33.84634 26.333474,34.243479 27.1436632,34.243479 C27.7079021,34.243479 28.1600099,34.075321 28.5,33.7390001 C28.9123285,33.8821154 29.3192254,33.8534927 29.7207031,33.6531313 C30.1221808,33.4527699 30.3844033,33.1486545 30.5073785,32.7407758 C31.0426821,32.7837104 31.5020235,32.626286 31.8854167,32.2684977 C32.0300933,32.139694 32.1603003,31.9769027 32.2760417,31.7801192 C32.391783,31.5833357 32.4424191,31.4026553 32.4279514,31.2380727 C32.5002897,31.3096304 32.6558148,31.3454087 32.8945312,31.3454087 C33.205586,31.3454087 33.4840844,31.2702742 33.7300347,31.1200032 C33.975985,30.9697321 34.1550197,30.7801072 34.2671441,30.5511227 C34.3792685,30.3221382 34.4226708,30.0663235 34.3973524,29.7836708 C34.372034,29.501018 34.2617197,29.2380476 34.0664062,28.9947516 Z M35.7916667,29.6173001 L36.8333333,29.6173001 L36.8333333,24.1217 L35.8242188,24.1217 L34.1206597,22.1896531 C33.6432268,21.645815 33.0319771,21.3739 32.2868924,21.3739 L30.4748264,21.3739 C29.8310153,21.3739 29.3029535,21.6136145 28.890625,22.0930508 L26.6228299,24.7013141 C26.4202826,24.9374543 26.3190104,25.2057915 26.3190104,25.5063336 C26.3190104,25.8068758 26.4166657,26.0752129 26.6119792,26.3113532 C26.923034,26.6762972 27.3208888,26.8623443 27.8055556,26.8695 C28.2902223,26.8766558 28.691694,26.7013422 29.0099826,26.3435539 L31.1041667,24.0036305 C31.2850125,23.8390479 31.4785146,23.7621246 31.6846788,23.7728582 C31.890843,23.7835919 32.0608356,23.8801932 32.1946615,24.0626653 C32.3284874,24.2451373 32.3592307,24.4472846 32.2868924,24.6691133 C32.4026337,24.8050728 32.605178,25.0304761 32.8945312,25.3453297 C33.1838845,25.6601834 33.4008963,25.9034757 33.5455729,26.0752141 C33.7553541,26.3328216 34.0537452,26.7102826 34.4407552,27.2076082 C34.8277652,27.7049339 35.0610528,28.0072604 35.140625,28.1145969 C35.5167843,28.5868774 35.733796,29.0877734 35.7916667,29.6173001 Z M38.9166667,29.6173001 C39.20602,29.6173001 39.4085642,29.5028095 39.5243056,29.273825 C39.6400469,29.0448406 39.6400469,28.8158595 39.5243056,28.586875 C39.4085642,28.3578906 39.20602,28.2434 38.9166667,28.2434 C38.6273134,28.2434 38.4247691,28.3578906 38.3090278,28.586875 C38.1932865,28.8158595 38.1932865,29.0448406 38.3090278,29.273825 C38.4247691,29.5028095 38.6273134,29.6173001 38.9166667,29.6173001 Z M41,23.43475 L41,30.3042501 C41,30.4902999 40.9312796,30.6513022 40.7938368,30.7872618 C40.656394,30.9232213 40.4936352,30.9912001 40.3055556,30.9912001 L35.5963542,30.9912001 C35.4010407,31.4563248 35.104458,31.8373636 34.7065972,32.1343278 C34.3087364,32.431292 33.8566287,32.6155502 33.3502604,32.6871079 C33.1115439,33.0305846 32.8203866,33.3221776 32.4767795,33.5618958 C32.1331725,33.8016139 31.7624441,33.9644051 31.3645833,34.0502743 C31.0607624,34.4295298 30.6828003,34.7211229 30.2306858,34.9250622 C29.7785712,35.1290015 29.3138045,35.2166583 28.8363715,35.1880352 C28.4023416,35.4313312 27.946617,35.5726555 27.469184,35.6120122 C26.9917511,35.6513689 26.5306012,35.6012793 26.0857205,35.4617419 C25.6408398,35.3222045 25.2176669,35.1307906 24.8161892,34.8874946 C24.4147115,34.6441986 24.0403663,34.3543945 23.6931424,34.0180735 L20.5789931,30.9912001 L16.6944444,30.9912001 C16.5063648,30.9912001 16.343606,30.9232213 16.2061632,30.7872618 C16.0687204,30.6513022 16,30.4902999 16,30.3042501 L16,23.091275 C16,22.9052251 16.0687204,22.7442228 16.2061632,22.6082633 C16.343606,22.4723038 16.5063648,22.404325 16.6944444,22.404325 L21.2625868,22.404325 C21.3638605,22.3041443 21.533853,22.1324085 21.7725694,21.8891125 C22.0112859,21.6458165 22.1830869,21.4740807 22.2879774,21.3739 C22.392868,21.2737193 22.5520099,21.1306061 22.765408,20.9445563 C22.978806,20.7585064 23.1614576,20.6243378 23.3133681,20.5420465 C23.4652785,20.4597552 23.6497385,20.3685206 23.8667535,20.2683398 C24.0837684,20.1681591 24.3080139,20.0983915 24.5394965,20.0590348 C24.7709792,20.0196781 25.0169258,20 25.2773438,20 L26.546875,20 C27.2630244,20 27.9176764,20.2003584 28.5108507,20.6010813 C29.104025,20.2003584 29.758677,20 30.4748264,20 L32.2868924,20 C32.5400765,20 32.7824063,20.021467 33.0138889,20.0644016 C33.2453715,20.1073362 33.4497242,20.1592147 33.6269531,20.2200387 C33.804182,20.2808627 33.9904504,20.3756751 34.1857639,20.5044789 C34.3810774,20.6332827 34.5420277,20.7441954 34.6686198,20.8372203 C34.7952119,20.9302453 34.9507369,21.0715695 35.1351997,21.2611973 C35.3196624,21.450825 35.46072,21.6010939 35.5583767,21.7120082 C35.6560335,21.8229226 35.8043248,21.9946584 36.0032552,22.2272207 C36.2021856,22.4597831 36.3522854,22.6333078 36.453559,22.7478 L40.3055556,22.7478 C40.4936352,22.7478 40.656394,22.8157788 40.7938368,22.9517383 C40.9312796,23.0876978 41,23.2487001 41,23.43475 Z" id="handshake-o---FontAwesome" fill="#FFFFFF"></path>
    </g>
</svg>