<?xml version="1.0" encoding="UTF-8"?>
<svg width="32px" height="32px" viewBox="0 0 56 56" version="1.1" xmlns="http://www.w3.org/2000/svg" xmlns:xlink="http://www.w3.org/1999/xlink">
    <!-- Generator: Sketch 49.3 (51167) - http://www.bohemiancoding.com/sketch -->
    <title>Locations/SelectedCPU</title>
    <desc>Created with Sketch.</desc>
    <defs>
        <circle id="path-1" cx="20" cy="20" r="20"></circle>
    </defs>
    <g id="Locations/SelectedCPU" stroke="none" stroke-width="1" fill="none" fill-rule="evenodd">
        <g id="Hub" transform="translate(8.000000, 8.000000)">
            <g id="Oval">
                <use fill="#351D13" fill-rule="evenodd" xlink:href="#path-1"></use>
                <circle stroke="#2196F3" stroke-width="8" cx="20" cy="20" r="24"></circle>
            </g>
        </g>
        <path d="M23.8366781,28.9798218 L32.2031894,28.9798218 C32.6432557,28.9798218 33,29.3354606 33,29.7741633 L33,38.1147494 C33,38.5534521 32.6432557,38.9090909 32.2031894,38.9090909 L23.8366781,38.9090909 C23.3966117,38.9090909 23.0398675,38.5534521 23.0398675,38.1147494 L23.0398675,29.7741633 C23.0398675,29.3354606 23.3966117,28.9798218 23.8366781,28.9798218 Z M29.1490081,30.1713341 C29.0389916,30.1713341 28.9498055,30.2602438 28.9498055,30.3699195 L28.9498055,32.9493962 C28.9498055,33.0590719 29.0389916,33.1479816 29.1490081,33.1479816 L31.7386426,33.1479816 C31.8486592,33.1479816 31.9378452,33.0590719 31.9378452,32.9493962 L31.9378452,30.3699195 C31.9378452,30.2602438 31.8486592,30.1713341 31.7386426,30.1713341 L29.1490081,30.1713341 Z M29.4475527,30.9656756 C29.3742083,30.9656756 29.314751,30.9064025 29.314751,30.8332854 C29.314751,30.7601683 29.3742083,30.7008951 29.4475527,30.7008951 L30.5763678,30.7008951 C30.6497121,30.7008951 30.7091695,30.7601683 30.7091695,30.8332854 C30.7091695,30.9064025 30.6497121,30.9656756 30.5763678,30.9656756 L29.4475527,30.9656756 Z M29.4475527,31.4952367 C29.3742083,31.4952367 29.314751,31.4359635 29.314751,31.3628464 C29.314751,31.2897293 29.3742083,31.2304561 29.4475527,31.2304561 L30.5763678,31.2304561 C30.6497121,31.2304561 30.7091695,31.2897293 30.7091695,31.3628464 C30.7091695,31.4359635 30.6497121,31.4952367 30.5763678,31.4952367 L29.4475527,31.4952367 Z M29.4475527,32.0247977 C29.3742083,32.0247977 29.314751,31.9655245 29.314751,31.8924074 C29.314751,31.8192903 29.3742083,31.7600172 29.4475527,31.7600172 L30.5763678,31.7600172 C30.6497121,31.7600172 30.7091695,31.8192903 30.7091695,31.8924074 C30.7091695,31.9655245 30.6497121,32.0247977 30.5763678,32.0247977 L29.4475527,32.0247977 Z M29.4475527,32.5543587 C29.3742083,32.5543587 29.314751,32.4950856 29.314751,32.4219684 C29.314751,32.3488513 29.3742083,32.2895782 29.4475527,32.2895782 L31.4727797,32.2895782 C31.5461241,32.2895782 31.6055814,32.3488513 31.6055814,32.4219684 C31.6055814,32.4950856 31.5461241,32.5543587 31.4727797,32.5543587 L29.4475527,32.5543587 Z M32.9601325,22.9646345 C32.9601325,23.1813206 32.8812876,23.3725113 32.7235953,23.5382123 L32.2441281,24.0161939 C32.0821739,24.1776462 31.888258,24.2583711 31.6623746,24.2583711 C31.4322291,24.2583711 31.2404442,24.1776462 31.0870139,24.0161939 L29.2075024,22.1488794 L29.2075024,26.6355325 C29.2075024,26.8564673 29.127592,27.0359741 28.9677687,27.1740583 C28.8079455,27.3121426 28.6150951,27.3811836 28.3892116,27.3811836 L27.5709209,27.3811836 C27.3450374,27.3811836 27.152187,27.3121426 26.9923638,27.1740583 C26.8325406,27.0359741 26.7526302,26.8564673 26.7526302,26.6355325 L26.7526302,22.1488794 L24.8731186,24.0161939 C24.7196884,24.1776462 24.5279034,24.2583711 24.297758,24.2583711 C24.0676125,24.2583711 23.8758276,24.1776462 23.7223973,24.0161939 L23.2429301,23.5382123 C23.0809759,23.37676 23,23.1855693 23,22.9646345 C23,22.739451 23.0809759,22.546136 23.2429301,22.3846837 L27.4047056,18.2358042 C27.5538739,18.0786006 27.7456589,18 27.9800663,18 C28.2102117,18 28.4041276,18.0786006 28.5618198,18.2358042 L32.7235953,22.3846837 C32.8812876,22.5503847 32.9601325,22.7436998 32.9601325,22.9646345 Z" id="Combined-Shape" fill="#FFFFFF"></path>
    </g>
</svg>