<?xml version="1.0" encoding="UTF-8"?>
<svg width="32px" height="32px" viewBox="0 0 56 56" version="1.1" xmlns="http://www.w3.org/2000/svg" xmlns:xlink="http://www.w3.org/1999/xlink">
    <!-- Generator: Sketch 49.3 (51167) - http://www.bohemiancoding.com/sketch -->
    <title>Locations/SelectedRailhead</title>
    <desc>Created with Sketch.</desc>
    <defs>
        <circle id="path-1" cx="20" cy="20" r="20"></circle>
    </defs>
    <g id="Locations/SelectedRailhead" stroke="none" stroke-width="1" fill="none" fill-rule="evenodd">
        <g id="Hub" transform="translate(8.000000, 8.000000)">
            <g id="Oval">
                <use fill="#351D13" fill-rule="evenodd" xlink:href="#path-1"></use>
                <circle stroke="#2196F3" stroke-width="8" cx="20" cy="20" r="24"></circle>
            </g>
        </g>
        <path d="M31.625,19 C32.8294331,19 33.8596962,19.3130549 34.7158203,19.9391741 C35.5719444,20.5652933 36,21.3236563 36,22.2142857 L36,31.2142857 C36,32.0848258 35.5914754,32.8281219 34.7744141,33.4441964 C33.9573527,34.0602709 32.9628965,34.3850445 31.7910156,34.4185268 L33.8710938,36.4475446 C33.9752609,36.5479916 34.0013023,36.6651779 33.9492188,36.7991071 C33.8971352,36.9330364 33.7994799,37 33.65625,37 L23.34375,37 C23.2005201,37 23.1028648,36.9330364 23.0507812,36.7991071 C22.9986977,36.6651779 23.0247391,36.5479916 23.1289062,36.4475446 L25.2089844,34.4185268 C24.0371035,34.3850445 23.0426473,34.0602709 22.2255859,33.4441964 C21.4085246,32.8281219 21,32.0848258 21,31.2142857 L21,22.2142857 C21,21.3236563 21.4280556,20.5652933 22.2841797,19.9391741 C23.1403038,19.3130549 24.1705669,19 25.375,19 L31.625,19 Z M28.5,32.5 C29.0208359,32.5 29.4635398,32.3125019 29.828125,31.9375 C30.1927102,31.5624981 30.375,31.1071455 30.375,30.5714286 C30.375,30.0357116 30.1927102,29.580359 29.828125,29.2053571 C29.4635398,28.8303553 29.0208359,28.6428571 28.5,28.6428571 C27.9791641,28.6428571 27.5364602,28.8303553 27.171875,29.2053571 C26.8072898,29.580359 26.625,30.0357116 26.625,30.5714286 C26.625,31.1071455 26.8072898,31.5624981 27.171875,31.9375 C27.5364602,32.3125019 27.9791641,32.5 28.5,32.5 Z M34.125,26.7142857 L34.125,21.5714286 L22.875,21.5714286 L22.875,26.7142857 L34.125,26.7142857 Z" id="train---FontAwesome" fill="#FFFFFF"></path>
    </g>
</svg>