<?xml version="1.0" encoding="UTF-8"?>
<svg width="24px" height="24px" viewBox="0 0 24 24" version="1.1" xmlns="http://www.w3.org/2000/svg" xmlns:xlink="http://www.w3.org/1999/xlink">
    <!-- Generator: Sketch 55.2 (78181) - https://sketchapp.com -->
    <title>Operations/package@1x</title>
    <desc>Created with Sketch.</desc>
    <g id="Operations/package" stroke="none" stroke-width="1" fill="none" fill-rule="evenodd">
        <polygon id="bounds" points="0 0 23.94 0 23.94 23.94 0 23.94"></polygon>
        <path d="M22.1381419,6.31781022 L22.1381419,6.30632418 C22.1318703,6.27556227 22.1256419,6.24484009 22.1172077,6.21594614 C22.1109361,6.18911889 22.100469,6.16225189 22.0899586,6.13538489 C22.087969,6.12962199 22.0858929,6.12389885 22.0837302,6.12004367 C22.071187,6.09317667 22.0587303,6.06615069 22.0419916,6.03932344 C22.0315245,6.02207451 22.0210141,6.00470634 22.0064813,5.98745741 C21.9897858,5.96059041 21.9688084,5.93559138 21.9478742,5.91246033 C21.9436354,5.90673718 21.9374071,5.90097429 21.9311787,5.8952114 C21.9166459,5.87987018 21.90194,5.86651617 21.8852013,5.85300318 C21.8454955,5.81465014 21.7973555,5.78190102 21.7471826,5.75503402 C21.7221827,5.7396928 21.6970097,5.72617981 21.6699769,5.716522 C21.6657382,5.71278606 21.6615427,5.71079885 21.6552711,5.70893088 C21.6531084,5.70694368 21.6510323,5.70503596 21.6489994,5.70503596 L17.7856868,4.11654448 L15.9189093,3.3480529 L12.3106999,1.86325372 C12.0932696,1.77291543 11.8466006,1.77291543 11.6291271,1.86325372 L2.29087079,5.70507571 C2.28888118,5.70507571 2.28680506,5.70694368 2.28464243,5.70897063 C2.27837082,5.7108386 2.27417533,5.71286555 2.2701096,5.71656175 C2.24290378,5.72617981 2.21773083,5.7396928 2.19268764,5.75507376 C2.14251474,5.78194076 2.09437472,5.81468989 2.05466893,5.85304292 C2.03797347,5.86655591 2.02344063,5.87990992 2.00873479,5.89525114 C2.00246318,5.90101403 1.99623482,5.90677692 1.99203932,5.91250007 C1.97106187,5.93563113 1.95030067,5.96063016 1.93338895,5.98749716 C1.91885611,6.00474609 1.908389,6.02211425 1.8979219,6.03936318 C1.88122644,6.06619044 1.86868322,6.09321641 1.85618325,6.12008341 C1.85397737,6.12397833 1.8519445,6.12970148 1.84991164,6.13542463 C1.83944453,6.16229163 1.82897743,6.18915863 1.82270582,6.21598589 C1.81427158,6.24484009 1.80799997,6.27560201 1.80177161,6.30636393 L1.80177161,6.31784997 C1.79753287,6.34674392 1.7955,6.37547889 1.7955,6.40620106 L1.7955,17.5341864 C1.7955,17.835844 1.9899632,18.1104359 2.29087079,18.2352721 L11.6084092,22.0695029 C11.6146375,22.0714901 11.6209091,22.0752261 11.6291704,22.077094 C11.6815491,22.0983571 11.7357878,22.1156061 11.7922323,22.1270921 C11.8508394,22.1385781 11.9115226,22.1445 11.97,22.1445 C12.03064,22.1445 12.0891174,22.1385781 12.1477677,22.1270921 C12.204169,22.1156061 12.2585806,22.0983969 12.3107864,22.077094 L12.3317638,22.0695029 L21.649086,18.2352721 C21.9501666,18.1104359 22.1445,17.835844 22.1445,17.5341864 L22.1445,6.40616132 C22.1444135,6.37543914 22.1423374,6.34670417 22.1381419,6.31781022 L22.1381419,6.31781022 Z M11.1309449,20.1897271 L3.46781436,17.0365905 L3.46781436,7.59335681 L5.75072415,8.5326287 L5.83856996,8.56879582 L8.76585538,9.7721274 L11.1337563,10.7475267 L11.1337563,17.4559303 L11.1309449,20.1897271 Z M4.7630625,6.40850622 L12.009494,3.49125 L19.2559256,6.40850622 L11.9699567,9.40668057 L4.7630625,6.40850622 Z M12.8061139,10.7475664 L20.4720991,7.59335681 L20.4720991,17.0365905 L15.0324062,19.2748183 L12.8061139,20.1879783 L12.8061139,10.7475664 Z" fill="#212121"></path>
    </g>
</svg>